<svg xmlns="http://www.w3.org/2000/svg" id="Calque_2" width="86.73" height="95.965" data-name="Calque 2" viewBox="0 0 86.73 95.965">
    <defs>
        <style>
            .cls-1{fill:#8338ec}
        </style>
    </defs>
    <g id="Calque_3" data-name="Calque 3">
        <path id="Tracé_1824" d="M67.371 13.169c0-4.7-3.209-7.539-7.978-7.539s-7.333 3.183-7.333 7.952c0 4.317 3.016 7.127 7.462 7.153 4.807 0 7.849-2.771 7.849-7.565" class="cls-1" data-name="Tracé 1824" transform="translate(15.063 1.63)"/>
        <path id="Tracé_1825" d="M48.528 10.1a7.088 7.088 0 0 1 5.014 2.9 2.99 2.99 0 0 1 .425 3.3c-1.611 2.835-5.155 1.8-6.586 1.547s-11.6-2.578-22.129.387c-4.524 1.289-7.849 3.441-8.609 2.474s6.032-5.684 6.032-5.684 7.178-7.217 25.853-4.924z" class="cls-1" data-name="Tracé 1825" transform="translate(4.818 2.791)"/>
        <path id="Tracé_1826" d="M20.688 16.833l6.7 5.155s1.443 1.688.477 2.706-4.588-1.134-4.588-1.134L.841 4.2A3.3 3.3 0 0 1 0 1.676C.2.143.068-.231.6.117s20.088 16.716 20.088 16.716z" class="cls-1" data-name="Tracé 1826" transform="translate(.025 .003)"/>
        <path id="Tracé_1827" d="M31.358 30.295s-2.1-6.3 5.464-5.026c4.653.786 4.691 4.253 7.733 4.356s4.021 1.289 6.032 2.578 10.607 11.508 10.942 17.874-2.681 5.8-6.032 6.444-22.605 2.217-23.134 2.217-2.281 0-.773-.915A115.129 115.129 0 0 1 44.478 52.5c2-.49 7.733-2.358 7.733-2.951s-.387-.632-1.547 0a36.164 36.164 0 0 1-8.519 2.178c-1.972.142-14.177 1.379-15.659 1.443s-6.264.709-4.794-.348 13.648-6.831 19.19-7.488c3.377-.387.155-3 .155-3S31.59 32.7 31.358 30.295z" class="cls-1" data-name="Tracé 1827" transform="translate(6.213 7.252)"/>
        <path id="Tracé_1828" d="M1.012 36.14s71 42.015 72.276 42.363a16.265 16.265 0 0 0 5.452-.374c.425-.206 1.843.168 1.289 1.366s-1.946 1.675-1.508 1.74 1.366 1.843 6.444.76c3.493-.748.9 2.977-.541 3.08S82 87.653 72.037 81.209 1.012 39.7 1.012 39.7a3.39 3.39 0 0 1-1.006-2.877c.245-1.83 1.006-.683 1.006-.683z" class="cls-1" data-name="Tracé 1828" transform="translate(.022 10.339)"/>
        <path id="Tracé_1829" d="M68.182 37.089a79.906 79.906 0 0 0-4.459-15.079c-.7-1.74-3.3-1.869-5.245-.76a4.047 4.047 0 0 0-2.088 5.374c1.572 3.866 3.506 7.733 5.155 11.6.876 2.036 2.088 2.152 3.712 1.83 1.289-.258 3.158-.76 2.9-2.964" class="cls-1" data-name="Tracé 1829" transform="translate(16.211 5.935)"/>
    </g>
</svg>
