<svg xmlns="http://www.w3.org/2000/svg" viewBox="0 0 325.01 166.22"><defs><style>.cls-1,.cls-8{fill:#8338ec;}.cls-1,.cls-2{stroke:#333;stroke-miterlimit:10;fill-rule:evenodd;}.cls-2,.cls-4{fill:#ffd058;}.cls-3{font-size:30px;fill:#fff;font-family:Montserrat-Bold, Montserrat;letter-spacing:0.03em;}.cls-3,.cls-4,.cls-8{font-weight:700;}.cls-4,.cls-8{font-size:18px;font-family:SFProDisplay-Bold, SF Pro Display;}.cls-10,.cls-11,.cls-12,.cls-5,.cls-9{fill:#fdfdff;}.cls-10,.cls-11,.cls-12,.cls-5{font-family:SFProDisplay-Regular, SF Pro Display;font-weight:400;}.cls-6,.cls-7{fill:none;stroke:#fdfdff;stroke-linecap:round;stroke-linejoin:round;stroke-width:2px;}.cls-6{stroke-dasharray:7;}.cls-10{letter-spacing:-0.02em;}.cls-11{letter-spacing:0em;}.cls-12{letter-spacing:-0.02em;}</style></defs><title>anthony chalencon_1</title><g id="Calque_2" data-name="Calque 2"><g id="Calque_1-2" data-name="Calque 1"><path class="cls-1" d="M133.88,87.56a41.5,41.5,0,0,0,41.5,41.5h.31v36.66a78.06,78.06,0,0,1,0-156.11V46.06h-.31A41.5,41.5,0,0,0,133.88,87.56Z"/><path class="cls-2" d="M253.75,87.66a78.06,78.06,0,0,1-78.06,78.06V129.06a41.5,41.5,0,0,0,0-83V9.61A78.05,78.05,0,0,1,253.75,87.66Z"/><text class="cls-3" transform="translate(166.18 97.58)">2</text><text class="cls-4" transform="translate(293.97 18.01)">1<tspan class="cls-5" x="8.64" y="0" xml:space="preserve"> Or</tspan></text><g id="trait"><line class="cls-6" x1="225.15" y1="59.86" x2="264.33" y2="12.33"/><line class="cls-7" x1="264.33" y1="12.33" x2="284.86" y2="12.33"/></g><text class="cls-8" transform="translate(0 15.34)">1<tspan class="cls-9" x="8.64" y="0"> </tspan><tspan class="cls-5" x="12.2" y="0">B</tspan><tspan class="cls-10" x="23.08" y="0">r</tspan><tspan class="cls-5" x="28.19" y="0">o</tspan><tspan class="cls-11" x="37.74" y="0">n</tspan><tspan class="cls-12" x="47.14" y="0">z</tspan><tspan class="cls-5" x="55.2" y="0">e</tspan></text><g id="trait-2" data-name="trait"><line class="cls-6" x1="125.06" y1="51.52" x2="92.82" y2="12.42"/><line class="cls-7" x1="93.82" y1="13.42" x2="73.29" y2="13.42"/></g></g></g></svg>