<svg xmlns="http://www.w3.org/2000/svg" viewBox="0 0 68.31 91.78"><defs><style>.cls-1{fill:#6dc6ba;}</style></defs><title>3Fichier 8</title><g id="Calque_2" data-name="Calque 2"><g id="Calque_2-2" data-name="Calque 2"><path class="cls-1" d="M22,40c0-3.74-2.41-5.85-5.74-5.85-3.74,0-5.76,2.14-5.76,6,0,3.67,2.27,5.61,5.63,5.61C20,45.78,22,43.79,22,40Z"/><path class="cls-1" d="M46.79,18.43c-.85-.87-1.85-.51-2.62.22-6.76,6.46-13.88,12.58-18.76,21,2.07.84,3.91,1.53,5.7,2.34,1.28.59,2.21.49,2.66-1,2.36-7.81,8.09-13.48,12.6-19.93C46.9,20.29,47.73,19.38,46.79,18.43Z"/><path class="cls-1" d="M51.81.05c-4.14,1.35-5.59,6.68-4.93,7.37s6.26.46,8.07-3C56,2.29,53.78-.4,51.81.05Z"/><path class="cls-1" d="M67.69,63.26c-.09-2.82-1.32-4.67-4.43-4.88-6.92-.48-13.83-1.5-20.73-1.43a17.34,17.34,0,0,0-17.2,16.48C25,82.38,31.19,90.31,39.56,91.56c9.6,1.42,17.87-4,20.27-13.29,1-3.81-.1-7.45-1-11.74,2,1.23,2,2.73,2.19,4q1.39,8,2.8,16c.25,1.45.89,2.6,2.53,2.43s2-1.53,1.92-2.94C68.12,78.45,67.93,70.85,67.69,63.26ZM42.57,88.8A14.06,14.06,0,0,1,28.4,74.24a14.36,14.36,0,1,1,28.72.34A14.18,14.18,0,0,1,42.57,88.8Z"/><path class="cls-1" d="M24.31,48.72c-2.84-2.36-5.62-1.46-7.63,1.39-1.9,2.69-3.56,5.54-5.34,8.35C4.64,52,3.31,51.2,4.05,46.7c.59-3.63,2.05-9.64,2.41-11,.7-2.62,1.22-3.9,4.42-4.9,3.81-1.2,5-7,2.84-10.66-1.78-2.92-4.34-3.41-7.23-1.86-3.75,2-5.5,7.53-2.85,10.63,1.91,2.24,1.55,4,.81,6.22C3.35,38.43,2.13,41.66,1.1,45c-.62,2-1.77,3.95-.59,6.16,2.56,4.8,5,9.66,7.63,14.43,1.59,2.92,3.8,2.94,6,.77,3.44-3.33,6.88-6.68,10.14-10.19C26.5,53.79,27,51,24.31,48.72ZM4.68,25c.3-2.85,1.58-5.67,4.67-5.25,2.73.38,3.23,2.25,3.15,4.57-.13,2.73-1.08,4.85-4.23,4.81C5.68,29.13,4.41,27.63,4.68,25Z"/></g></g></svg>