<svg xmlns="http://www.w3.org/2000/svg" viewBox="0 0 314.86 184.93"><defs><style>.cls-1,.cls-9{fill:#8338ec;}.cls-1,.cls-2,.cls-3{stroke:#333;stroke-miterlimit:10;}.cls-2{fill:#64dfc7;}.cls-3,.cls-5{fill:#ffd058;}.cls-4{font-size:30px;fill:#fff;font-family:Montserrat-Bold, Montserrat;letter-spacing:0.03em;}.cls-14,.cls-4,.cls-5,.cls-9{font-weight:700;}.cls-14,.cls-5,.cls-9{font-size:18px;font-family:SFProDisplay-Bold, SF Pro Display;}.cls-10,.cls-11,.cls-12,.cls-13,.cls-6{fill:#fdfdff;}.cls-11,.cls-12,.cls-13,.cls-6{font-family:SFProDisplay-Regular, SF Pro Display;font-weight:400;}.cls-7,.cls-8{fill:none;stroke:#fdfdff;stroke-linecap:round;stroke-linejoin:round;stroke-width:2px;}.cls-7{stroke-dasharray:7;}.cls-11{letter-spacing:-0.02em;}.cls-12{letter-spacing:0em;}.cls-13{letter-spacing:-0.02em;}.cls-14{fill:#5fbdb4;}</style></defs><title>benjamin daviet_1</title><g id="Calque_2" data-name="Calque 2"><g id="Calque_1-2" data-name="Calque 1"><path class="cls-1" d="M166.58,18.56l.22,36.55a41.49,41.49,0,0,0-35.81,21L99.22,58C113.42,33.05,137.87,18.74,166.58,18.56Z"/><path class="cls-2" d="M167.31,138.11l.22,36.56A78.05,78.05,0,0,1,89,97.09,74.55,74.55,0,0,1,99.22,58L131,76.08a41.5,41.5,0,0,0,36.32,62Z"/><path class="cls-3" d="M245.1,96.13a78.05,78.05,0,0,1-77.57,78.54l-.22-36.56a41.5,41.5,0,1,0-.51-83l-.22-36.55A78,78,0,0,1,245.1,96.13Z"/><text class="cls-4" transform="translate(157.53 107.03)">6</text><text class="cls-5" transform="translate(281.12 15.34)">3<tspan class="cls-6" x="11.34" y="0" xml:space="preserve"> Or</tspan></text><g id="trait"><line class="cls-7" x1="212.3" y1="57.19" x2="251.48" y2="9.66"/><line class="cls-8" x1="251.48" y1="9.66" x2="272.01" y2="9.66"/></g><text class="cls-9" transform="translate(9.15 16.67)">1<tspan class="cls-10" x="8.64" y="0"> </tspan><tspan class="cls-6" x="12.2" y="0">B</tspan><tspan class="cls-11" x="23.08" y="0">r</tspan><tspan class="cls-6" x="28.19" y="0">o</tspan><tspan class="cls-12" x="37.74" y="0">n</tspan><tspan class="cls-13" x="47.14" y="0">z</tspan><tspan class="cls-6" x="55.2" y="0">e</tspan></text><g id="trait-2" data-name="trait"><line class="cls-7" x1="134.21" y1="52.85" x2="101.97" y2="13.75"/><line class="cls-8" x1="102.97" y1="14.75" x2="82.44" y2="14.75"/></g><g id="trait-3" data-name="trait"><line class="cls-7" x1="123.39" y1="131.74" x2="91.4" y2="171.04"/><line class="cls-8" x1="92.39" y1="170.04" x2="71.86" y2="170.16"/></g><text class="cls-14" transform="matrix(1, -0.01, 0.01, 1, 0.09, 174.1)">2<tspan class="cls-6" x="10.85" y="0" xml:space="preserve"> A</tspan><tspan class="cls-11" x="25.9" y="0">r</tspan><tspan class="cls-6" x="31.01" y="0">gent</tspan></text></g></g></svg>