<svg xmlns="http://www.w3.org/2000/svg" id="Calque_2" width="90.529" height="106.334" data-name="Calque 2" viewBox="0 0 90.529 106.334">
    <defs>
        <style>
            .cls-1{fill:#2b2b2b}
        </style>
    </defs>
    <g id="Calque_1" data-name="Calque 1">
        <path id="Tracé_1951" d="M12.737 15.974C8.8 21.412 6.722 27.937 4.707 34.338 2.4 41.659.081 49.08-.01 56.743c-.145 12.9 6.3 25.387 15.94 33.945s22.209 13.393 34.987 15.112a40.107 40.107 0 0 0 14.472-.237c5.354-1.244 10.172-4.153 14.708-7.262 2.8-1.912 5.6-3.989 7.4-6.839 2.08-3.277 2.674-7.265 2.913-11.136.441-7.206-.311-14.826-4.327-20.829-3.114-4.666-8.083-8.254-9.477-13.682-1.595-6.236 2.142-12.5 2.888-18.9a20.73 20.73 0 0 0-3.958-14.68C61.108-6.965 25.679-1.92 12.737 15.974z" class="cls-1" data-name="Tracé 1951" transform="translate(.012 -.002)"/>
    </g>
</svg>
