<svg xmlns="http://www.w3.org/2000/svg" width="458.197" height="538.201" viewBox="0 0 458.197 538.201">
    <defs>
        <style>
            .cls-1{fill:#2b2b2b}
        </style>
    </defs>
    <g id="Calque_2" data-name="Calque 2" transform="translate(.008 -.003)">
        <g id="Calque_1" data-name="Calque 1" transform="translate(-.008 .003)">
            <path id="Tracé_1951" d="M64.518 80.844c-19.936 27.52-30.447 60.548-40.643 92.946C12.215 210.846.461 248.406 0 287.192-.735 352.461 31.883 415.684 80.678 459s112.41 67.786 177.081 76.472c24.342 3.273 49.329 4.406 73.246-1.2 27.1-6.294 51.485-21.022 74.442-36.757 14.161-9.677 28.323-20.188 37.433-34.617 10.527-16.585 13.532-36.773 14.744-56.363 2.234-36.474-1.574-75.04-21.9-105.424-15.735-23.6-40.911-41.761-47.944-69.234-8.072-31.564 10.841-63.27 14.618-95.637a104.921 104.921 0 0 0-20.031-74.3C309.338-35.264 130.022-9.726 64.518 80.844z" class="cls-1" data-name="Tracé 1951" transform="translate(.008 -.003)"/>
        </g>
    </g>
</svg>
