<svg xmlns="http://www.w3.org/2000/svg" width="403.36" height="617.209" viewBox="0 0 403.36 617.209">
    <defs>
        <style>
            .cls-1{fill:#2b2b2b}
        </style>
    </defs>
    <g id="Calque_2" data-name="Calque 2" transform="translate(.001 -.009)">
        <g id="Calque_1" data-name="Calque 1" transform="translate(-.001 .009)">
            <path id="Tracé_1952" d="M357.465 74.689c25.358 40.121 33.664 88.411 40.454 135.4 3.4 23.463 6.548 47.169 5.062 70.829-3.2 51.186-27.919 98.794-58.491 139.961s-67.282 77.406-99.354 117.421c-18.461 23.024-36.028 47.881-61.2 63.281a108.919 108.919 0 0 1-93.413 9.094 108.949 108.949 0 0 1-64.751-68.055c-5.911-18.567-6.654-38.332-10.019-57.521-3.915-22.252-11.372-43.82-14.253-66.238-3.319-25.767-.5-51.807 2.334-77.589C9.095 293.088-1.849 264.3 19.7 196.659c3.138-9.852 2.274-20.689 5.82-30.314 3.986-11.11 10.959-20.841 18.431-29.935a271.872 271.872 0 0 1 75.79-63.51c9.488-5.366 19.7-10.428 26.3-19.052 4.547-5.79 7.063-12.777 10.61-19.143C199.362-40.7 324.59 22.731 357.465 74.689z" class="cls-1" data-name="Tracé 1952" transform="translate(.001 -.009)"/>
        </g>
    </g>
</svg>
