<svg xmlns="http://www.w3.org/2000/svg" viewBox="0 0 341.99 167.79"><defs><style>.cls-1,.cls-9{fill:#8338ec;}.cls-1,.cls-2{stroke:#333;stroke-miterlimit:10;fill-rule:evenodd;}.cls-2,.cls-4{fill:#64dfc7;}.cls-3{font-size:30px;fill:#fff;font-family:Montserrat-Bold, Montserrat;letter-spacing:0.03em;}.cls-3,.cls-4,.cls-9{font-weight:700;}.cls-4,.cls-9{font-size:18px;font-family:SFProDisplay-Bold, SF Pro Display;}.cls-10,.cls-11,.cls-12,.cls-5,.cls-6{fill:#fdfdff;}.cls-11,.cls-12,.cls-5,.cls-6{font-family:SFProDisplay-Regular, SF Pro Display;font-weight:400;}.cls-6{letter-spacing:-0.02em;}.cls-7,.cls-8{fill:none;stroke:#fdfdff;stroke-linecap:round;stroke-linejoin:round;stroke-width:2px;}.cls-7{stroke-dasharray:7;}.cls-11{letter-spacing:0em;}.cls-12{letter-spacing:-0.02em;}</style></defs><title>celine herlandez</title><g id="Calque_2" data-name="Calque 2"><g id="Calque_1-2" data-name="Calque 1"><path class="cls-1" d="M164.38,11.18V48.06a41.52,41.52,0,0,0-36.09,62L96.78,128.26A78.06,78.06,0,0,1,125.35,21.64,74.6,74.6,0,0,1,164.38,11.18Z"/><path class="cls-2" d="M242.44,89.23a78.06,78.06,0,0,1-78.06,78.06c-28.71,0-53.24-14.16-67.6-39l31.51-18.19a41.5,41.5,0,1,0,36.09-62V11.18A78.05,78.05,0,0,1,242.44,89.23Z"/><text class="cls-3" transform="translate(155.15 99.58)">3</text><text class="cls-4" transform="translate(276.97 19.01)">2<tspan class="cls-5" x="10.85" y="0" xml:space="preserve"> A</tspan><tspan class="cls-6" x="25.9" y="0">r</tspan><tspan class="cls-5" x="31.01" y="0">gent</tspan></text><g id="trait"><line class="cls-7" x1="208.15" y1="60.86" x2="247.33" y2="13.33"/><line class="cls-8" x1="247.33" y1="13.33" x2="267.86" y2="13.33"/></g><text class="cls-9" transform="translate(0 15.34)">1<tspan class="cls-10" x="8.64" y="0"> </tspan><tspan class="cls-5" x="12.2" y="0">B</tspan><tspan class="cls-6" x="23.08" y="0">r</tspan><tspan class="cls-5" x="28.19" y="0">o</tspan><tspan class="cls-11" x="37.74" y="0">n</tspan><tspan class="cls-12" x="47.14" y="0">z</tspan><tspan class="cls-5" x="55.2" y="0">e</tspan></text><g id="trait-2" data-name="trait"><line class="cls-7" x1="125.06" y1="51.52" x2="92.82" y2="12.42"/><line class="cls-8" x1="93.82" y1="13.42" x2="73.29" y2="13.42"/></g></g></g></svg>