<svg xmlns="http://www.w3.org/2000/svg" viewBox="0 0 265.66 393.98"><defs><style>.cls-1,.cls-2,.cls-3,.cls-5{fill:none;stroke-linecap:round;stroke-linejoin:round;}.cls-1{stroke:#e94861;}.cls-2{stroke:#77c5ba;}.cls-3{stroke:#ffd05a;}.cls-4{fill:#ffd05a;}.cls-5{stroke:#fff;stroke-width:3px;}</style></defs><title>Fichier 11</title><g id="Calque_2" data-name="Calque 2"><g id="Calque_1-2" data-name="Calque 1"><path class="cls-1" d="M57.59,49.08s15.51-36,58.5-41.65"/><path class="cls-2" d="M124.55,12.1s38.76,59.19,56.38,70.26"/><path class="cls-3" d="M86.84,34.29s21.5.12,25,36.32,90.22,15.44,90.22,15.44"/><path class="cls-3" d="M92.36,41S105.05,69.41,63.7,82.36"/><path class="cls-1" d="M82,47.23S69.81,68,44.43,82.36"/><path class="cls-3" d="M79,86.05s-12.43,17-30.76,25.59"/><path class="cls-3" d="M63.23,109.81s-6.58,3.81-15,9"/><path class="cls-3" d="M126.66,41s22.56,34,39.47,45.1"/><path class="cls-3" d="M120.67,58s8.81,17.51,17.74,24.35"/><path class="cls-2" d="M120.67,17.77s5,19.12,39.82,23.18,26.32,41.41,26.32,41.41"/><path class="cls-1" d="M175.53,17.77S208.89,43.47,197.14,80"/><path class="cls-1" d="M207,40.94a62.79,62.79,0,0,1-2.82,57.7"/><path class="cls-2" d="M212.73,102.35s7.91,10.33,15.9,16.44"/><path class="cls-2" d="M216.41,118.79s4.23,5.9,9.87,7.88"/><path class="cls-3" d="M223.92,131.16s1.88,14.32-2.35,18.16"/><path class="cls-1" d="M220.68,49.08s7.48,23.07,3.25,39.81"/><path class="cls-3" d="M221.34,167.1s16.21-33.46,21.38,0c0,0-6.11,16.36-6.58,28.43s-6,25.77-15.46,26.21"/><path class="cls-3" d="M50.07,162.84S28,138.14,28,163.24c0,0,5.64,19,2.82,28.85,0,0,8.46,42.06,24.9,31.14"/><path class="cls-2" d="M58.53,121.9s-5.17,20.64-5.64,32.47"/><path class="cls-2" d="M44.43,102.35s2.35,31.88,3.76,40.37"/><line class="cls-1" x1="54.77" y1="169.33" x2="60.41" y2="204.96"/><line class="cls-1" x1="51.95" y1="181.51" x2="57.59" y2="212.06"/><path class="cls-2" d="M44.43,169.33s-9.63,9.11-4,17.82,8.93,15.52,5.87,21.16"/><path class="cls-2" d="M226.69,172.36a19.66,19.66,0,0,1,1.94,17.86c-3.76,10.33-6.11,7.64-2.35,14.74"/><line class="cls-1" x1="217.58" y1="182.46" x2="216.41" y2="212.06"/><line class="cls-1" x1="207.75" y1="184.11" x2="206.27" y2="209.72"/><path class="cls-3" d="M146.4,153.8S152,182,149,203.14"/><path class="cls-1" d="M132.77,160.14s1.18,18.56,0,24.2"/><path class="cls-2" d="M125.4,195.62s-8,15.74,10.57,20.44"/><path class="cls-3" d="M160.47,195.62s8.23,14.1-5.4,20.44"/><path class="cls-3" d="M138.41,219.35s5.17,2.86,13.39,0"/><line class="cls-3" x1="126.66" y1="132.18" x2="126.63" y2="142.72"/><line class="cls-1" x1="157.21" y1="132.18" x2="157.21" y2="142.72"/><path class="cls-1" d="M162.84,130.78s22.09-.71,29.37,1.4"/><path class="cls-1" d="M165.07,140.06a89.81,89.81,0,0,1,15.86,0"/><path class="cls-3" d="M193.39,139.7a74,74,0,0,1,12.21,1.41s-4.7-6.34-8.93-7.05"/><path class="cls-1" d="M103.87,130.66s-23,2.7-28.66,10.45c0,0,20.68-4.3,28.66-3"/><path class="cls-3" d="M122.67,139.7a113.41,113.41,0,0,0-12-1.56"/><path class="cls-1" d="M118.67,156.3s-22.59-14.89-39.72,0"/><path class="cls-2" d="M81.08,160.14s18.8,7.05,35.6,0"/><path class="cls-2" d="M165.07,156.3s17.51-13.78,37,.79"/><path class="cls-1" d="M166.13,161.21s16,10.1,32.42,0"/><path class="cls-3" d="M120.49,246.72s19.55-15.86,44.58,0"/><path class="cls-3" d="M120.67,250.59s21.48,12.69,44.4,0"/><line class="cls-2" x1="133.29" y1="246.72" x2="151.8" y2="246.72"/><line class="cls-1" x1="107.89" y1="227.1" x2="103.87" y2="233.97"/><line class="cls-1" x1="114.21" y1="227.1" x2="114.21" y2="233.97"/><line class="cls-1" x1="120.67" y1="227.1" x2="119.61" y2="233.97"/><line class="cls-1" x1="127.6" y1="227.1" x2="129.54" y2="233.97"/><line class="cls-1" x1="137" y1="225.04" x2="137" y2="236.03"/><line class="cls-1" x1="144.46" y1="227.1" x2="144.46" y2="236.03"/><line class="cls-1" x1="148.14" y1="227.1" x2="154.19" y2="233.97"/><line class="cls-1" x1="158.38" y1="227.1" x2="161.14" y2="236.03"/><line class="cls-1" x1="165.07" y1="227.1" x2="170.13" y2="236.03"/><line class="cls-1" x1="173" y1="228.04" x2="178.82" y2="236.03"/><line class="cls-1" x1="102.7" y1="228.04" x2="97.77" y2="236.03"/><line class="cls-2" x1="206.54" y1="212.06" x2="211.98" y2="237.44"/><line class="cls-1" x1="194.8" y1="233.97" x2="199.65" y2="247.78"/><line class="cls-1" x1="180.93" y1="252.71" x2="180.93" y2="267.37"/><line class="cls-1" x1="170.13" y1="260.04" x2="170.13" y2="288.19"/><line class="cls-1" x1="175.91" y1="256.23" x2="175.53" y2="274.11"/><line class="cls-1" x1="190.33" y1="243.19" x2="194.8" y2="263.28"/><line class="cls-3" x1="198.55" y1="224.75" x2="212.73" y2="249.89"/><circle class="cls-4" cx="182.34" cy="157.37" r="4.34"/><line class="cls-2" x1="67.11" y1="210.24" x2="67.11" y2="226.1"/><line class="cls-2" x1="75.21" y1="220.86" x2="64.29" y2="260.04"/><line class="cls-2" x1="81.08" y1="229.63" x2="67.11" y2="265.17"/><line class="cls-1" x1="91.6" y1="246.72" x2="86.31" y2="257.82"/><line class="cls-2" x1="84.02" y1="233.97" x2="75.21" y2="280.02"/><line class="cls-2" x1="67.11" y1="233.33" x2="61.82" y2="244.43"/><line class="cls-1" x1="63.23" y1="205.84" x2="60.41" y2="233.33"/><line class="cls-2" x1="216.81" y1="227.45" x2="216.41" y2="239.67"/><line class="cls-1" x1="203.84" y1="256.23" x2="206.54" y2="269.27"/><line class="cls-1" x1="197.22" y1="260.04" x2="201.02" y2="278.79"/><line class="cls-1" x1="192.21" y1="264.16" x2="194.8" y2="289.54"/><line class="cls-1" x1="185.52" y1="277.73" x2="192.21" y2="294.29"/><line class="cls-1" x1="174.41" y1="280.02" x2="186.4" y2="298.17"/><line class="cls-1" x1="174.41" y1="289.54" x2="180.93" y2="302.58"/><line class="cls-1" x1="162.84" y1="260.99" x2="162.84" y2="284.43"/><line class="cls-1" x1="155.03" y1="274.11" x2="152.92" y2="292.18"/><line class="cls-1" x1="156.44" y1="292.18" x2="166.13" y2="320.9"/><line class="cls-1" x1="164.02" y1="291.3" x2="170.13" y2="315.09"/><line class="cls-1" x1="142.87" y1="260.99" x2="146.4" y2="272.71"/><line class="cls-1" x1="137" y1="260.99" x2="133.29" y2="271.74"/><line class="cls-1" x1="140.05" y1="262.75" x2="140.05" y2="274.11"/><line class="cls-1" x1="142.55" y1="280.02" x2="142.55" y2="298.17"/><line class="cls-3" x1="148.14" y1="280.02" x2="148.14" y2="323.01"/><line class="cls-1" x1="134.42" y1="283.15" x2="127.6" y2="306.54"/><line class="cls-1" x1="122.67" y1="297.11" x2="122.67" y2="318.26"/><line class="cls-1" x1="139.17" y1="306.54" x2="137" y2="320.9"/><line class="cls-1" x1="137" y1="298.17" x2="127.6" y2="323.01"/><line class="cls-1" x1="121.55" y1="266.85" x2="105.88" y2="311.74"/><line class="cls-1" x1="112.39" y1="257.82" x2="110.69" y2="282.14"/><line class="cls-1" x1="100.23" y1="257.82" x2="101.47" y2="286.01"/><line class="cls-1" x1="100.85" y1="252.27" x2="89.54" y2="260.99"/><line class="cls-1" x1="89.54" y1="269.41" x2="78.95" y2="288.19"/><line class="cls-3" x1="96" y1="272.71" x2="83.32" y2="296.06"/><line class="cls-1" x1="108.69" y1="288.19" x2="98.81" y2="305.57"/><line class="cls-1" x1="126.63" y1="275.62" x2="121.55" y2="290.24"/><line class="cls-1" x1="98.81" y1="288.19" x2="89.54" y2="303.19"/><path class="cls-1" d="M74.83,302.05s1.67,27.13-.74,33.48"/><path class="cls-1" d="M.5,373.59S46,343.63,72,341.16"/><path class="cls-2" d="M193.5,311.74s-.94,27.38,7.52,34.36"/><path class="cls-3" d="M265.16,373.59s-27.41-19-56.7-24"/><path class="cls-2" d="M46.31,356.3s82.54,82.29,165.67,2"/><path class="cls-5" d="M98.88,50.06s6.8,11.14,9,29.89,42.62,24.39,86.91,14.88c0,0,3.75,29,16.44,45.23,0,0-1.41,19.54,3.53,29.27s2.81-7.87,2.81-7.87,8.15-14.45,14.12-13.05,12.35-59.37,0-95.06S175.52-2.44,133.29,2.15,44,12.41,38.67,90.6c-5.4,78.73,18.92,69.54,18.92,69.54"/><path class="cls-5" d="M54.77,229.3s1.76,95.62,84.4,97.92S221.34,225,221.34,225s-15.59,5.82-8.61-44.57"/><path class="cls-2" d="M176.24,157.09s.35,6.38,6.1,6.19,6.46-5.91,6.46-5.91"/><circle class="cls-4" cx="97.94" cy="155.23" r="4.34"/><path class="cls-1" d="M104.05,155s-.35,6.39-6.11,6.19-6.46-5.91-6.46-5.91"/></g></g></svg>