<svg xmlns="http://www.w3.org/2000/svg" width="336.96" height="406.265" viewBox="0 0 336.96 406.265">
    <defs>
        <style>
            .cls-1,.cls-2,.cls-3,.cls-5{fill:none;stroke-linecap:round;stroke-linejoin:round}.cls-1{stroke:#ffd05a}.cls-2{stroke:#77c5ba}.cls-3{stroke:#5e4a98}.cls-4{fill:#ffd05a}.cls-5{stroke:#fff;stroke-width:3px}
        </style>
    </defs>
    <g id="Calque_2" data-name="Calque 2" transform="translate(.203 -.017)">
        <g id="Calque_1" data-name="Calque 1">
            <path id="Tracé_2002" d="M193.66 139.11s33.5-22.81 37.31 15.07c0 0-10.24 14.47-10.45 32 0 0-3.26 12.44-34 14.21" class="cls-1" data-name="Tracé 2002"/>
            <path id="Tracé_2003" d="M148.73 90.6s11-23.23 11-34.27" class="cls-2" data-name="Tracé 2003"/>
            <path id="Tracé_2004" d="M148.73 44.53s-36.93-.76-48.35 11.8" class="cls-1" data-name="Tracé 2004"/>
            <path id="Tracé_2005" d="M156.73 14.07s-43-12.94-99 19" class="cls-3" data-name="Tracé 2005"/>
            <path id="Tracé_2006" d="M84 27s-22.08 6.49-32.36 26.29" class="cls-3" data-name="Tracé 2006"/>
            <path id="Tracé_2007" d="M95.43 36.15s-21.7 1.91-36.17 17.14" class="cls-3" data-name="Tracé 2007"/>
            <path id="Tracé_2008" d="M109.9 44.52S100.2 31.71 90.1 27" class="cls-3" data-name="Tracé 2008"/>
            <path id="Tracé_2009" d="M51.64 33.11S43.27 48 49.36 70.8" class="cls-3" data-name="Tracé 2009"/>
            <path id="Tracé_2010" d="M95.43 41.86s-18.66 12.19-36.17 19.8" class="cls-1" data-name="Tracé 2010"/>
            <path id="Tracé_2011" d="M170.43 58.62s-7.61 29.69-16.18 39.21" class="cls-2" data-name="Tracé 2011"/>
            <path id="Tracé_2012" d="M174.24 70.8s-1.9 28.55-14.47 41.12" class="cls-2" data-name="Tracé 2012"/>
            <path id="Tracé_2013" d="M182.62 83.36s.38 12.57-6.48 22.85" class="cls-2" data-name="Tracé 2013"/>
            <path id="Tracé_2014" d="M170.43 108.87s9.9 7.24 29.7 12.19" class="cls-3" data-name="Tracé 2014"/>
            <path id="Tracé_2015" d="M167 115s15.43 10.66 30.66 12.34" class="cls-3" data-name="Tracé 2015"/>
            <path id="Ligne_345" d="M5.71 0L0 28.56" class="cls-3" data-name="Ligne 345" transform="translate(170.43 125.62)"/>
            <path id="Ligne_346" d="M6.48 0L0 30.07" class="cls-3" data-name="Ligne 346" transform="translate(176.14 131.72)"/>
            <path id="Ligne_347" d="M5.14 0L0 21.89" class="cls-3" data-name="Ligne 347" transform="translate(172.22 137.54)"/>
            <path id="Tracé_2016" d="M202.41 143.14s17.9.38 16.38 18.65-25.13 17.14-25.13 17.14" class="cls-2" data-name="Tracé 2016"/>
            <path id="Tracé_2017" d="M210.79 161.79c-.38-7.61-10.66-7.61-10.66-7.61s-3 3.32 2.67 11" class="cls-3" data-name="Tracé 2017"/>
            <path id="Tracé_2018" d="M218.88 28.54s25.42 22.08 32.27 44.92" class="cls-1" data-name="Tracé 2018"/>
            <path id="Tracé_2019" d="M235 53.29s-2.9 47.59-7.85 58.63" class="cls-2" data-name="Tracé 2019"/>
            <path id="Tracé_2020" d="M240.11 65.09s.35 37.62-5.1 56" class="cls-2" data-name="Tracé 2020"/>
            <path id="Tracé_2021" d="M227.16 119.53s-15.55.19-18.64 4.38" class="cls-3" data-name="Tracé 2021"/>
            <path id="Tracé_2022" d="M247.34 78.22s3.43 42.07-3.43 64.92" class="cls-3" data-name="Tracé 2022"/>
            <path id="Tracé_2023" d="M253.81 78.22s3.14 48-7.75 72.63" class="cls-1" data-name="Tracé 2023"/>
            <path id="Tracé_2024" d="M242 165.17c.71 1.08-12.52 24.84-20.94 44.6" class="cls-3" data-name="Tracé 2024"/>
            <path id="Tracé_2025" d="M243.91 156.53s-5.95 3.4-14.42 26.24" class="cls-3" data-name="Tracé 2025"/>
            <path id="Ligne_348" d="M1.71 0L0 32.87" class="cls-2" data-name="Ligne 348" transform="translate(179.38 167.5)"/>
            <path id="Ligne_349" d="M1.33 0L0 35.2" class="cls-2" data-name="Ligne 349" transform="translate(171.96 165.17)"/>
            <path id="Ligne_350" d="M4.57 0L0 36.98" class="cls-2" data-name="Ligne 350" transform="translate(164.34 165.17)"/>
            <path id="Ligne_351" d="M13.32 0L0 11.81" class="cls-2" data-name="Ligne 351" transform="translate(146.45 197.96)"/>
            <path id="Ligne_352" d="M8.83 0L0 7.82" class="cls-2" data-name="Ligne 352" transform="translate(154.56 206.77)"/>
            <path id="Tracé_2026" d="M77.34 177s12.76.33 8.19 10.45" class="cls-2" data-name="Tracé 2026"/>
            <path id="Tracé_2027" d="M70.68 191.11s-13.16.33-4.86-3.64" class="cls-3" data-name="Tracé 2027"/>
            <path id="Tracé_2028" d="M72.71 185.91s13.71.5 5.59 4.57" class="cls-3" data-name="Tracé 2028"/>
            <path id="Tracé_2029" d="M45.93 182.25S41.62 191 53.8 193" class="cls-1" data-name="Tracé 2029"/>
            <path id="Ligne_353" d="M0 0v6.09" class="cls-3" data-name="Ligne 353" transform="translate(84.01 119.53)"/>
            <path id="Tracé_2030" d="M88.07 125.62s9.14-6.21 18.27-6.09" class="cls-3" data-name="Tracé 2030"/>
            <path id="Tracé_2031" d="M88.07 116.11s4.57-3 9.14-3" class="cls-3" data-name="Tracé 2031"/>
            <path id="Tracé_2032" d="M111.67 113.06s8.89.25 20.56 6.47" class="cls-1" data-name="Tracé 2032"/>
            <path id="Tracé_2033" d="M124.56 121.06s-7.56-3.81-12.89-2.67" class="cls-3" data-name="Tracé 2033"/>
            <path id="Ligne_354" d="M0 0v5.71" class="cls-1" data-name="Ligne 354" transform="translate(60.95 121.06)"/>
            <path id="Tracé_2034" d="M59.26 119.62s-11.8-4.4-19.16 4.29" class="cls-3" data-name="Tracé 2034"/>
            <path id="Tracé_2035" d="M57.37 126.77s-2.49-2-8-1.15" class="cls-1" data-name="Tracé 2035"/>
            <path id="Tracé_2036" d="M41.37 130s-2.8 3.41-1.27 7.21" class="cls-3" data-name="Tracé 2036"/>
            <path id="Tracé_2037" d="M37.3 126.77v5" class="cls-3" data-name="Tracé 2037"/>
            <path id="Tracé_2038" d="M88.07 142s5.58 6.85 27.16-3.3" class="cls-3" data-name="Tracé 2038"/>
            <path id="Tracé_2039" d="M90.1 137.17s-.76-16.24 23.1-1.77" class="cls-2" data-name="Tracé 2039"/>
            <path id="Tracé_2040" d="M57.74 137.7s-6.63-5.11-11.13 4.15" class="cls-3" data-name="Tracé 2040"/>
            <path id="Tracé_2041" d="M58.37 145s-5.88 3.82-10.53.77" class="cls-2" data-name="Tracé 2041"/>
            <path id="Ligne_355" d="M4.08 0L0 26.28" class="cls-2" data-name="Ligne 355" transform="translate(76.79 147.13)"/>
            <path id="Tracé_2042" d="M92.64 217.63s-22.34 10.16-27.29 2.54" class="cls-1" data-name="Tracé 2042"/>
            <path id="Tracé_2043" d="M90.1 214.59s-23.1-8.63-24.75 0" class="cls-1" data-name="Tracé 2043"/>
            <path id="Ligne_356" d="M9.91 0H0" class="cls-2" data-name="Ligne 356" transform="translate(66.88 215.6)"/>
            <path id="Ligne_357" d="M7.34 0L0 11.81" class="cls-3" data-name="Ligne 357" transform="translate(51.26 197.96)"/>
            <path id="Ligne_358" d="M9.52 0L0 11.39" class="cls-3" data-name="Ligne 358" transform="translate(55.83 199.36)"/>
            <path id="Ligne_359" d="M3.8 0L0 8.13" class="cls-3" data-name="Ligne 359" transform="translate(66.88 200.37)"/>
            <path id="Ligne_360" d="M1.67 0L0 8.13" class="cls-3" data-name="Ligne 360" transform="translate(75.12 200.37)"/>
            <path id="Ligne_361" d="M0 0l2.51 9.14" class="cls-3" data-name="Ligne 361" transform="translate(84.01 199.36)"/>
            <path id="Ligne_362" d="M0 0l4.06 11.81" class="cls-3" data-name="Ligne 362" transform="translate(91.37 197.96)"/>
            <path id="Ligne_363" d="M0 0v21.83" class="cls-3" data-name="Ligne 363" transform="translate(97.21 215.6)"/>
            <path id="Ligne_364" d="M0 0l2.16 25.13" class="cls-3" data-name="Ligne 364" transform="translate(101.65 215.6)"/>
            <path id="Ligne_365" d="M0 0l3.56 27.05" class="cls-3" data-name="Ligne 365" transform="translate(106.34 212.67)"/>
            <path id="Ligne_366" d="M6.72 0L0 39.34" class="cls-3" data-name="Ligne 366" transform="translate(115.23 208.5)"/>
            <path id="Ligne_367" d="M9.33 0L0 48.22" class="cls-3" data-name="Ligne 367" transform="translate(118.59 209.77)"/>
            <path id="Ligne_368" d="M9.27 0L0 43.15" class="cls-3" data-name="Ligne 368" transform="translate(121.95 217.63)"/>
            <path id="Ligne_369" d="M7.36 0L0 42.93" class="cls-3" data-name="Ligne 369" transform="translate(131.22 210.75)"/>
            <path id="Ligne_370" d="M6.6 0L0 41.4" class="cls-3" data-name="Ligne 370" transform="translate(136.8 210.75)"/>
            <path id="Ligne_371" d="M4.06 0L0 29.52" class="cls-3" data-name="Ligne 371" transform="translate(143.4 214.59)"/>
            <path id="Ligne_372" d="M15.8 0L0 34.34" class="cls-2" data-name="Ligne 372" transform="translate(153.11 209.77)"/>
            <path id="Ligne_373" d="M14.24 0L0 32.24" class="cls-2" data-name="Ligne 373" transform="translate(158.38 215.6)"/>
            <path id="Ligne_374" d="M9.13 0L0 35.28" class="cls-2" data-name="Ligne 374" transform="translate(167.01 214.59)"/>
            <path id="Tracé_2044" d="M180.24 223s4.28 31.18-23.13 48.7" class="cls-1" data-name="Tracé 2044"/>
            <path id="Ligne_375" d="M26.59 0L0 25.64" class="cls-3" data-name="Ligne 375" transform="translate(100 260.78)"/>
            <path id="Ligne_376" d="M28.68 0L0 25.64" class="cls-3" data-name="Ligne 376" transform="translate(108.12 259.26)"/>
            <path id="Ligne_377" d="M26.4 0L0 22.34" class="cls-3" data-name="Ligne 377" transform="translate(117 262.56)"/>
            <path id="Ligne_378" d="M23.2 0L0 16.37" class="cls-3" data-name="Ligne 378" transform="translate(123.25 272.08)"/>
            <path id="Ligne_379" d="M22.33 0L0 17.26" class="cls-3" data-name="Ligne 379" transform="translate(127.92 275.51)"/>
            <path id="Ligne_380" d="M19.03 0L0 17.26" class="cls-3" data-name="Ligne 380" transform="translate(131.22 281.6)"/>
            <path id="Ligne_381" d="M0 0h22.33" class="cls-3" data-name="Ligne 381" transform="translate(84.01 275.51)"/>
            <path id="Ligne_382" d="M0 0h25.69" class="cls-3" data-name="Ligne 382" transform="translate(75.96 280.26)"/>
            <path id="Ligne_383" d="M0 0h25.38" class="cls-3" data-name="Ligne 383" transform="translate(71.83 284.9)"/>
            <path id="Ligne_384" d="M48.13 0H0" class="cls-1" data-name="Ligne 384" transform="translate(75.12 292.77)"/>
            <path id="Ligne_385" d="M.11 0L0 22.99" class="cls-3" data-name="Ligne 385" transform="translate(49.39 212.67)"/>
            <path id="Ligne_386" d="M1.55 0L0 40.28" class="cls-3" data-name="Ligne 386" transform="translate(53.38 215.6)"/>
            <path id="Ligne_387" d="M1.52 0L0 43.15" class="cls-3" data-name="Ligne 387" transform="translate(57.74 217.63)"/>
            <path id="Ligne_388" d="M6.88 0L0 6.94" class="cls-3" data-name="Ligne 388" transform="translate(60.95 226.94)"/>
            <path id="Ligne_389" d="M0 0v46.16" class="cls-3" data-name="Ligne 389" transform="translate(70.68 229.35)"/>
            <path id="Ligne_390" d="M0 0v45.1" class="cls-3" data-name="Ligne 390" transform="translate(75.12 230.41)"/>
            <path id="Ligne_391" d="M0 0l18.15 18.53" class="cls-3" data-name="Ligne 391" transform="translate(49.68 271.7)"/>
            <path id="Ligne_392" d="M0 0l12.72 11.68" class="cls-3" data-name="Ligne 392" transform="translate(54.16 269.92)"/>
            <path id="Ligne_393" d="M13.2 0L0 10.92" class="cls-3" data-name="Ligne 393" transform="translate(84.01 242.76)"/>
            <path id="Ligne_394" d="M13.2 0L0 10.92" class="cls-3" data-name="Ligne 394" transform="translate(85.02 251.01)"/>
            <path id="Ligne_395" d="M18.3 0L0 17.77" class="cls-3" data-name="Ligne 395" transform="translate(86.52 252.15)"/>
            <path id="Ligne_396" d="M0 0v29.19" class="cls-1" data-name="Ligne 396" transform="translate(47.14 240.73)"/>
            <path id="Ligne_397" d="M0 0l8.07 6.29" class="cls-3" data-name="Ligne 397" transform="translate(99.19 295.11)"/>
            <path id="Ligne_398" d="M0 0l7.46 6.44" class="cls-3" data-name="Ligne 398" transform="translate(104.18 294.96)"/>
            <path id="Ligne_399" d="M0 0l9.8.96" class="cls-3" data-name="Ligne 399" transform="translate(113.45 298.47)"/>
            <path id="Ligne_400" d="M4.36 0L0 42.91" class="cls-3" data-name="Ligne 400" transform="translate(208.84 204.44)"/>
            <path id="Tracé_2045" d="M208.84 261s3.37 50 41.3 64.47" class="cls-2" data-name="Tracé 2045"/>
            <path id="Tracé_2046" d="M84.52 358.25S109.14 476.66 242 339.6" class="cls-2" data-name="Tracé 2046"/>
            <path id="Tracé_2047" d="M97.42 310.28s2.61 28.93-12.16 42.83" class="cls-3" data-name="Tracé 2047"/>
            <path id="Tracé_2048" d="M76.79 357.24S24.36 368.91.5 388.2" class="cls-3" data-name="Tracé 2048"/>
            <path id="Tracé_2049" d="M256.86 329.32s42.21-6.1 79.19 27.92" class="cls-1" data-name="Tracé 2049"/>
            <circle id="Ellipse_24" cx="4.08" cy="4.08" r="4.08" class="cls-4" data-name="Ellipse 24" transform="translate(94.38 132.56)"/>
            <circle id="Ellipse_25" cx="2.79" cy="2.79" r="2.79" class="cls-4" data-name="Ellipse 25" transform="translate(51.11 138.13)"/>
            <path id="Tracé_2050" d="M49.68 78.22s-7.44 15.21-4.49 28" class="cls-2" data-name="Tracé 2050"/>
            <path id="Tracé_2051" d="M42.25 141.14s6 7.58 7.43 12.15" class="cls-1" data-name="Tracé 2051"/>
            <path id="Tracé_2052" d="M54.16 70.8S81.72 56 95.43 61.66c0 0 28.68-1.9 43.66-8.37 0 0 14.86 8.75-2.29 37.31 0 0 9.08 23 24.21 29 0 0 10.6 23.52 4.49 35.89s23.21 9.66 23.21 9.66-16.12-31.55 18.65-36.88 28.94 29.19 28.94 29.19-14 16.75-10.15 28.43c0 0-.59 11.8-9.43 18 0 0-2.5 14.83 4.35 16.46s10.47-11.82 10.47-11.82 5.35-30.46 22.69-44.93 17.1-75.13 13.54-94.42c0 0-22.33-52.8-64.47-59.9s-74.62-14.1-132.62 2.2-28.43 66.74-28.43 66.74" class="cls-5" data-name="Tracé 2052"/>
            <path id="Tracé_2053" d="M51.26 199.36s-24 16.46-11.16 70.56c12.34 52.16 89.59 32.74 100.64 28.94s43.83-26.75 49.49-65c3.43-23.13-9.75-29.95-9.75-29.95s-7.76-10.92 3.09-30.52" class="cls-5" data-name="Tracé 2053"/>
            <path id="Tracé_2054" d="M65.35 134s-13.26 14.85-16 43" class="cls-1" data-name="Tracé 2054"/>
            <path id="Tracé_2055" d="M57.63 140.71a3.45 3.45 0 0 1-2.58 3.82 4.26 4.26 0 0 1-4.52-1.61" class="cls-3" data-name="Tracé 2055"/>
            <path id="Tracé_2056" d="M92.64 137.17s.08 4.73 5.65 4.88 6-5.41 6-5.41" class="cls-2" data-name="Tracé 2056"/>
        </g>
    </g>
</svg>
