<svg xmlns="http://www.w3.org/2000/svg" width="820" height="694.999" viewBox="0 0 820 694.999">
    <defs>
        <style>
            .cls-1,.cls-2,.cls-3,.cls-7{fill:#fff}.cls-1{font-size:9px}.cls-1,.cls-2,.cls-3{font-family:Montserrat-SemiBold,Montserrat;font-weight:600}.cls-2{font-size:13px}.cls-3,.cls-7{font-size:12px}.cls-4,.cls-5{fill:none;stroke-miterlimit:10}.cls-4{stroke:#ffd058;stroke-width:2px}.cls-5{stroke:#000}.cls-6{fill:#ffd058}.cls-7{font-family:Montserrat-MediumItalic,Montserrat;font-weight:500;font-style:italic}.cls-8{font-family:Montserrat-Bold,Montserrat;font-weight:700;font-style:normal}
        </style>
    </defs>
    <g id="Groupe_169" data-name="Groupe 169" transform="translate(-72)">
        <g id="Groupe_149" data-name="Groupe 149" transform="translate(220.362 648.568)">
            <g id="Groupe_146" data-name="Groupe 146" transform="translate(0 29.737)">
                <g id="Groupe_137" data-name="Groupe 137" transform="translate(0 .694)">
                    <text id="_0" class="cls-1" data-name="0" transform="translate(0 9)">
                        <tspan x="0" y="0">0</tspan>
                    </text>
                </g>
                <g id="Groupe_138" data-name="Groupe 138" transform="translate(70.508 .694)">
                    <text id="_100" class="cls-2" data-name="100" transform="translate(0 13)">
                        <tspan x="0" y="0">100</tspan>
                    </text>
                </g>
                <g id="Groupe_139" data-name="Groupe 139" transform="translate(151.046 .694)">
                    <text id="_200" class="cls-3" data-name="200" transform="translate(0 12)">
                        <tspan x="0" y="0">200</tspan>
                    </text>
                </g>
                <g id="Groupe_140" data-name="Groupe 140" transform="translate(233.873 .694)">
                    <text id="_300" class="cls-3" data-name="300" transform="translate(0 12)">
                        <tspan x="0" y="0">300</tspan>
                    </text>
                </g>
                <g id="Groupe_141" data-name="Groupe 141" transform="translate(315.595 .694)">
                    <text id="_400" class="cls-3" data-name="400" transform="translate(0 12)">
                        <tspan x="0" y="0">400</tspan>
                    </text>
                </g>
                <g id="Groupe_142" data-name="Groupe 142" transform="translate(399.566 .694)">
                    <text id="_500" class="cls-3" data-name="500" transform="translate(0 12)">
                        <tspan x="0" y="0">500</tspan>
                    </text>
                </g>
                <g id="Groupe_143" data-name="Groupe 143" transform="translate(481.922 .694)">
                    <text id="_600" class="cls-3" data-name="600" transform="translate(0 12)">
                        <tspan x="0" y="0">600</tspan>
                    </text>
                </g>
                <g id="Groupe_144" data-name="Groupe 144" transform="translate(565.24 .694)">
                    <text id="_700" class="cls-3" data-name="700" transform="translate(0 12)">
                        <tspan x="0" y="0">700</tspan>
                    </text>
                </g>
                <g id="Groupe_145" data-name="Groupe 145" transform="translate(647.639)">
                    <text id="_800" class="cls-3" data-name="800" transform="translate(0 12)">
                        <tspan x="0" y="0">800</tspan>
                    </text>
                </g>
            </g>
            <path id="Ligne_314" d="M0 0h662.877" class="cls-4" data-name="Ligne 314" transform="translate(7.564 16.802)"/>
            <g id="Groupe_148" data-name="Groupe 148" transform="translate(7.564)">
                <g id="Groupe_147" data-name="Groupe 147">
                    <path id="Ligne_315" d="M0 16.802V0" class="cls-5" data-name="Ligne 315"/>
                    <path id="Ligne_316" d="M0 16.802V0" class="cls-4" data-name="Ligne 316" transform="translate(83.027)"/>
                    <path id="Ligne_317" d="M0 16.802V0" class="cls-4" data-name="Ligne 317" transform="translate(166.054)"/>
                    <path id="Ligne_318" d="M0 16.802V0" class="cls-4" data-name="Ligne 318" transform="translate(249.081)"/>
                    <path id="Ligne_319" d="M0 16.802V0" class="cls-4" data-name="Ligne 319" transform="translate(331.438)"/>
                    <path id="Ligne_320" d="M0 16.802V0" class="cls-4" data-name="Ligne 320" transform="translate(414.465)"/>
                    <path id="Ligne_321" d="M0 16.802V0" class="cls-4" data-name="Ligne 321" transform="translate(497.492)"/>
                    <path id="Ligne_322" d="M0 16.802V0" class="cls-4" data-name="Ligne 322" transform="translate(580.519)"/>
                    <path id="Ligne_323" d="M0 16.802V0" class="cls-4" data-name="Ligne 323" transform="translate(662.877)"/>
                </g>
            </g>
        </g>
        <g id="Groupe_152" data-name="Groupe 152" transform="translate(227.926)">
            <path id="Ligne_324" d="M0 665.37V0" class="cls-4" data-name="Ligne 324"/>
            <g id="Groupe_151" data-name="Groupe 151" transform="translate(0 27.556)">
                <g id="Groupe_150" data-name="Groupe 150">
                    <path id="Ligne_325" d="M0 0h16.739" class="cls-5" data-name="Ligne 325" transform="translate(0 610.259)"/>
                    <path id="Ligne_326" d="M0 0h16.739" class="cls-5" data-name="Ligne 326" transform="translate(0 554.475)"/>
                    <path id="Ligne_327" d="M0 0h16.739" class="cls-5" data-name="Ligne 327" transform="translate(0 499.364)"/>
                    <path id="Ligne_328" d="M0 0h16.739" class="cls-5" data-name="Ligne 328" transform="translate(0 443.58)"/>
                    <path id="Ligne_329" d="M0 0h16.739" class="cls-5" data-name="Ligne 329" transform="translate(0 388.469)"/>
                    <path id="Ligne_330" d="M0 0h16.739" class="cls-5" data-name="Ligne 330" transform="translate(0 332.685)"/>
                    <path id="Ligne_331" d="M0 0h16.739" class="cls-5" data-name="Ligne 331" transform="translate(0 277.574)"/>
                    <path id="Ligne_332" d="M0 0h16.739" class="cls-5" data-name="Ligne 332" transform="translate(0 221.79)"/>
                    <path id="Ligne_333" d="M0 0h16.739" class="cls-5" data-name="Ligne 333" transform="translate(0 166.679)"/>
                    <path id="Ligne_334" d="M0 0h16.739" class="cls-5" data-name="Ligne 334" transform="translate(0 110.895)"/>
                    <path id="Ligne_335" d="M0 0h16.739" class="cls-5" data-name="Ligne 335" transform="translate(0 55.784)"/>
                    <path id="Ligne_336" d="M0 0h16.739" class="cls-5" data-name="Ligne 336"/>
                </g>
            </g>
        </g>
        <g id="Groupe_155" data-name="Groupe 155" transform="translate(227.926 8.065)">
            <g id="Groupe_154" data-name="Groupe 154">
                <g id="Groupe_153" data-name="Groupe 153">
                    <path id="Rectangle_103" d="M0 0h206.898v39.653H0z" class="cls-6" data-name="Rectangle 103"/>
                    <path id="Rectangle_104" d="M0 0h289.925v39.653H0z" class="cls-6" data-name="Rectangle 104" transform="translate(0 55.111)"/>
                    <path id="Rectangle_105" d="M0 0h372.952v39.653H0z" class="cls-6" data-name="Rectangle 105" transform="translate(0 110.895)"/>
                    <path id="Rectangle_106" d="M0 0h314.699v39.653H0z" class="cls-6" data-name="Rectangle 106" transform="translate(0 166.007)"/>
                    <path id="Rectangle_107" d="M0 0h380.987v39.653H0z" class="cls-6" data-name="Rectangle 107" transform="translate(0 221.79)"/>
                    <path id="Rectangle_108" d="M0 0h414.465v39.653H0z" class="cls-6" data-name="Rectangle 108" transform="translate(0 276.902)"/>
                    <path id="Rectangle_109" d="M0 0h480.753v39.653H0z" class="cls-6" data-name="Rectangle 109" transform="translate(0 332.685)"/>
                    <path id="Rectangle_110" d="M0 0h356.213v39.653H0z" class="cls-6" data-name="Rectangle 110" transform="translate(0 387.797)"/>
                    <path id="Rectangle_111" d="M0 0h397.726v39.653H0z" class="cls-6" data-name="Rectangle 111" transform="translate(0 443.58)"/>
                    <path id="Rectangle_112" d="M0 0h415.805v39.653H0z" class="cls-6" data-name="Rectangle 112" transform="translate(0 498.692)"/>
                    <path id="Rectangle_113" d="M0 0h453.301v39.653H0z" class="cls-6" data-name="Rectangle 113" transform="translate(0 554.475)"/>
                    <path id="Rectangle_114" d="M0 0h555.076v39.653H0z" class="cls-6" data-name="Rectangle 114" transform="translate(0 609.587)"/>
                </g>
            </g>
        </g>
        <g id="Groupe_168" data-name="Groupe 168" transform="translate(11 13.552)">
            <g id="Groupe_156" data-name="Groupe 156" transform="translate(24.73 610.557)">
                <text id="PyeongChang_2018" class="cls-7" data-name="PyeongChang 2018" transform="translate(52.271 15.448)">
                    <tspan x="0" y="0">PyeongChang </tspan><tspan y="0" class="cls-8">2018</tspan>
                </text>
            </g>
            <g id="Groupe_157" data-name="Groupe 157" transform="translate(86.555 555.109)">
                <text id="Scotchi_2014" class="cls-7" data-name="Scotchi 2014" transform="translate(33.445 15.448)">
                    <tspan x="0" y="0">Scotchi </tspan><tspan y="0" class="cls-8">2014</tspan>
                </text>
            </g>
            <g id="Groupe_158" data-name="Groupe 158" transform="translate(56.526 499.662)">
                <text id="Vancouver_2010" class="cls-7" data-name="Vancouver 2010" transform="translate(42.474 15.448)">
                    <tspan x="0" y="0">Vancouver </tspan><tspan y="0" class="cls-8">2010</tspan>
                </text>
            </g>
            <g id="Groupe_159" data-name="Groupe 159" transform="translate(102.452 445.987)">
                <text id="Turin_2006" class="cls-7" data-name="Turin 2006" transform="translate(27.548 15.448)">
                    <tspan x="0" y="0">Turin </tspan><tspan y="0" class="cls-8">2006</tspan>
                </text>
            </g>
            <g id="Groupe_160" data-name="Groupe 160" transform="translate(26.496 388.767)">
                <text id="Salt_Lake_City_2002" class="cls-7" data-name="Salt Lake City 2002" transform="translate(52.503 15.448)">
                    <tspan x="0" y="0">Salt Lake City </tspan><tspan y="0" class="cls-8">2002</tspan>
                </text>
            </g>
            <g id="Groupe_161" data-name="Groupe 161" transform="translate(79.489 333.319)">
                <text id="Nagano_1998" class="cls-7" data-name="Nagano 1998" transform="translate(35.511 15.448)">
                    <tspan x="0" y="0">Nagano </tspan><tspan y="0" class="cls-8">1998</tspan>
                </text>
            </g>
            <g id="Groupe_162" data-name="Groupe 162" transform="translate(37.095 277.871)">
                <text id="Lillehammer_1994" class="cls-7" data-name="Lillehammer 1994" transform="translate(48.905 15.448)">
                    <tspan x="0" y="0">Lillehammer </tspan><tspan y="0" class="cls-8">1994</tspan>
                </text>
            </g>
            <g id="Groupe_163" data-name="Groupe 163" transform="translate(0 222.424)">
                <text id="Tignes_Albertville_1992" class="cls-7" data-name="Tignes Albertville 1992" transform="translate(61 15.448)">
                    <tspan x="0" y="0">Tignes Albertville </tspan><tspan y="0" class="cls-8">1992</tspan>
                </text>
            </g>
            <g id="Groupe_164" data-name="Groupe 164" transform="translate(63.591 166.973)">
                <text id="Innsbruck_1988" class="cls-7" data-name="Innsbruck 1988" transform="translate(39.409 15.448)">
                    <tspan x="0" y="0">Innsbruck </tspan><tspan y="0" class="cls-8">1988</tspan>
                </text>
            </g>
            <g id="Groupe_165" data-name="Groupe 165" transform="translate(61.825 111.525)">
                <text id="Innsbruck_1984" class="cls-7" data-name="Innsbruck 1984" transform="translate(41.175 15.448)">
                    <tspan x="0" y="0">Innsbruck </tspan><tspan y="0" class="cls-8">1984</tspan>
                </text>
            </g>
            <g id="Groupe_166" data-name="Groupe 166" transform="translate(107.752 57.851)">
                <text id="Geilo_1980" class="cls-7" data-name="Geilo 1980" transform="translate(25.248 15.448)">
                    <tspan x="0" y="0">Geilo </tspan><tspan y="0" class="cls-8">1980</tspan>
                </text>
            </g>
            <g id="Groupe_167" data-name="Groupe 167" transform="translate(39.095)">
                <text id="Ornskoldsvik_1976" class="cls-7" data-name="Ornskoldsvik 1976" transform="translate(47.905 15.448)">
                    <tspan x="0" y="0">Ornskoldsvik </tspan><tspan y="0" class="cls-8">1976</tspan>
                </text>
            </g>
        </g>
    </g>
</svg>
