<svg xmlns="http://www.w3.org/2000/svg" viewBox="0 0 281.41 391.46"><defs><style>.cls-1,.cls-2,.cls-3,.cls-4,.cls-6{fill:none;stroke-linecap:round;stroke-linejoin:round;}.cls-1{stroke:#ffd05a;}.cls-2{stroke:#e94861;}.cls-3{stroke:#77c5ba;}.cls-4{stroke:#f28e6b;}.cls-5{fill:#77c5ba;}.cls-6{stroke:#fff;stroke-width:3px;}</style></defs><title>Fichier 8</title><g id="Calque_2" data-name="Calque 2"><g id="Calque_1-2" data-name="Calque 1"><path class="cls-1" d="M45.94,140.43s37.83-5.05,69.42-31.67c51.2-43.16,76.87-31.82,76.87-31.82s7.11,51.78,37.23,71.3"/><path class="cls-2" d="M203.24,74.34s8.37,53.26,39,71.67"/><path class="cls-3" d="M222.77,104.73s3.9,25.66,22.31,32.35"/><path class="cls-2" d="M210.5,70.15s1.73,11.26,8.36,27.89"/><path class="cls-2" d="M214.68,61.78s7,30.12,14.78,40.72"/><path class="cls-3" d="M233.92,110.17s6.14,11.3,16.18,16.87"/><path class="cls-1" d="M254,86.88s3.9,32.35-15.07,68.05"/><path class="cls-2" d="M226.32,159.19s15.69-7.44,20.32,5.23c0,0,6.25,18.41-1.56,35.14,0,0-6.59,6.44-5.29,17.71,0,0-.39,17.91-20.93,13.72"/><path class="cls-2" d="M233.92,284.92s-17.45,2-21.49-47.13"/><path class="cls-3" d="M224.49,144.54S222.87,221.29,205,257.65c0,0-23.52,49-60.86,51.29s-64.36-44.07-69-57S64.74,221.85,57.3,141.07"/><path class="cls-3" d="M224.05,51.83a114,114,0,0,0,7.65,28.75"/><path class="cls-3" d="M201,59.37s-1.47-8.06-24.58-13.57"/><path class="cls-2" d="M162.44,45.8S139,40.67,109.26,64.88"/><path class="cls-2" d="M191.78,59.37S163.9,43.6,135.85,64.88"/><path class="cls-2" d="M193.25,67.81s-35.58-14.67-67.12,9.9"/><path class="cls-3" d="M228.31,177.11s9.71,2.42,3.83,17.17-5.49,14.37,0,16.57"/><path class="cls-3" d="M118.12,93.09s-18.05,24.18-62.42,36.72"/><path class="cls-3" d="M104.05,89.11S90,109.62,55.7,111.45"/><path class="cls-4" d="M97.62,49.33S87.21,62.79,65.49,75.65"/><path class="cls-1" d="M35.8,70.59s-19.38,34.83-3.36,69.65"/><path class="cls-1" d="M39.17,86.88s-8.86,17.1-.6,49.73"/><path class="cls-1" d="M44.37,102.5s-3.47,13,3,29.13"/><path class="cls-2" d="M56.38,161.19s-8-19.75-19.05-.16,0,39.17,0,39.17,5,3.54,6.4,19.89c1.67,20.13,21.76,4.71,21.76,4.71"/><path class="cls-3" d="M54.16,174.18s-9,6.22-3.6,20.1-1.74,14.48-1.74,14.48"/><path class="cls-1" d="M122.58,258.9s7,1.94,10.23,6h16.26a17,17,0,0,1,10.22-6"/><line class="cls-2" x1="134.48" y1="254.58" x2="146.88" y2="254.58"/><line class="cls-2" x1="126.98" y1="143.44" x2="126.98" y2="153.68"/><path class="cls-3" d="M122.58,153.68s-18.24-8.06-35.67-7.67"/><path class="cls-2" d="M64.15,148.56S72.73,136.05,97,137.08"/><line class="cls-3" x1="157.39" y1="143.44" x2="157.39" y2="153.11"/><path class="cls-3" d="M217.18,151.85S213.63,145,187,146"/><path class="cls-3" d="M195,137.33a83.66,83.66,0,0,0-31.38,3.74"/><path class="cls-2" d="M115.36,165.94S97.6,151.43,76.29,168"/><path class="cls-1" d="M166.56,168s20.13-15.1,40,0"/><line class="cls-2" x1="78.75" y1="166.22" x2="73.85" y2="160.64"/><line class="cls-2" x1="82.35" y1="164.04" x2="78.75" y2="158.35"/><line class="cls-2" x1="86.5" y1="162.13" x2="83.31" y2="156.25"/><line class="cls-2" x1="91.63" y1="160.64" x2="89.71" y2="154.72"/><line class="cls-1" x1="204.31" y1="166.45" x2="209.05" y2="160.06"/><line class="cls-1" x1="200.48" y1="164.29" x2="204.31" y2="158.3"/><line class="cls-1" x1="196.36" y1="162.67" x2="199.31" y2="156.38"/><line class="cls-1" x1="192.89" y1="161.81" x2="193.79" y2="154.93"/><path class="cls-1" d="M176.7,166.45s-.63,7.73,7.57,7.73,6.94-7.73,6.94-7.73"/><path class="cls-1" d="M91.63,166.45s-1.34,7.73,6.86,7.73,6.25-7.73,6.25-7.73"/><path class="cls-1" d="M84.9,176s13.17,4.83,24.31,0"/><path class="cls-2" d="M173.2,177.11s13.09,4.37,20.59-.07"/><path class="cls-3" d="M47.47,55.77s12-26.8,57.27-34.53"/><path class="cls-1" d="M248.37,66.2s-9.43-31.28-32.47-40.34"/><path class="cls-1" d="M162.44,31.87S144,27.55,118.12,41.4"/><path class="cls-1" d="M66.71,246.25s3.61,15.1-9.58,34.59-3,48.91-3,48.91"/><path class="cls-1" d="M55.79,236.42s.76,26.82,16.72,36.76"/><line class="cls-3" x1="136.69" y1="277.13" x2="146.27" y2="277.13"/><line class="cls-3" x1="138.7" y1="228.99" x2="138.7" y2="237.06"/><line class="cls-3" x1="143" y1="228.99" x2="143" y2="237.06"/><line class="cls-1" x1="134.18" y1="164.29" x2="134.18" y2="195.78"/><line class="cls-1" x1="148.4" y1="162.13" x2="148.4" y2="195.78"/><path class="cls-2" d="M134.18,198.73s-3.29.48-6.24,10"/><path class="cls-2" d="M148.4,198.73s5.55,5.16,5.81,10"/><path class="cls-2" d="M119.62,208.76a8.57,8.57,0,0,0,0,11.11"/><path class="cls-2" d="M163,208.76s5,6.09,0,11.11"/><path class="cls-2" d="M127,216.06s7,3.83,8.47,7.12c0,0,7.05,3.65,11,0,0,0,6.07-7.12,8.84-7.12"/><polyline class="cls-2" points="91.97 279.85 101.37 352.42 148.4 390.96 192.89 348.87 191.28 279.13"/><circle class="cls-5" cx="98.23" cy="168.62" r="3.4"/><circle class="cls-5" cx="183.98" cy="168.62" r="3.4"/><path class="cls-2" d="M124.35,16.77S156,3.61,195,18.89"/><path class="cls-3" d="M192.89,348.87s54.72-2.65,87,9.15"/><path class="cls-3" d="M101.37,352.42s-53.76.64-83.57,19.27"/><path class="cls-2" d="M122.58,139.09s-7.25-2.1-12.18-1.76"/><path class="cls-2" d="M163.81,153.11a31.7,31.7,0,0,1,12.88-4.84"/><path class="cls-1" d="M117.54,254.8s5.87-10.55,12.2-11.77a10.24,10.24,0,0,1,10.94,2.78s4.88-5,10.62-3.35c0,0,5.75.79,10.41,11.45"/><path class="cls-6" d="M266.72,120.91s13.19,16.42,13.19,103.89c0,112.1-14.53,139.87-30.9,141.93s-25.83-21.85-25.83-21.85c-15.58-2.75-23.87-.23-23.87-.23-3.46-20.65-1.48-62.86-1.48-62.86,16.63-17.43,19.35-40.59,19.35-40.59s30.41-3.41,29.46-21.33c-.63-12,7.7-25.89,7.7-25.89,6.09-22.57-4.24-37.73-4.24-37.73,10.08-22.11,12.65-53.75,12.65-53.75C270.49-14.45,134.18,2.34,134.18,2.34,105.23,2.82,8.88,11.5,2.6,137-5.65,301.64,35.32,358,35.32,358c8.07-5,21.81-5.6,21.81-5.6C87,395,96.7,371.69,96.7,371.69c1.57-45-9.9-90.67-9.9-90.67C64.85,265.45,65.49,234,65.49,234c-22.74,12.11-27.66-9.16-27.66-9.16,2-11.7-5.39-23.79-5.39-23.79-20.6-37.73,13.5-65.14,13.5-65.14s33.93-3.1,61.64-28c47.34-42.49,85.67-36,85.67-36"/></g></g></svg>