<svg xmlns="http://www.w3.org/2000/svg" width="304.583" height="384.068" viewBox="0 0 304.583 384.068">
    <defs>
        <style>
            .cls-1,.cls-2,.cls-3,.cls-5{fill:none;stroke-linecap:round;stroke-linejoin:round}.cls-1{stroke:#5e4a98}.cls-2{stroke:#ffd05a}.cls-3{stroke:#77c5ba}.cls-4{fill:#77c5ba}.cls-5{stroke:#fff;stroke-width:3px}
        </style>
    </defs>
    <g id="Calque_2" data-name="Calque 2" transform="translate(.681 1.502)">
        <g id="Calque_1" data-name="Calque 1">
            <path id="Tracé_1954" d="M222.043 156.46s-4.84-17.25-27.3-18.13c0 0-12.38.19-11.06 15.78 1.59 18.76-7.87 22.61-7.87 22.61s-1 32 32.46 21.45" class="cls-1" data-name="Tracé 1954" transform="translate(-94.003 -1.539)"/>
            <path id="Tracé_1955" d="M187.26 145.56s2 10.13 12.11 14.09" class="cls-2" data-name="Tracé 1955" transform="translate(-82.78 -1.539)"/>
            <path id="Tracé_1956" d="M195.18 174.62s7.49 7.83 16.74 11.4" class="cls-3" data-name="Tracé 1956" transform="translate(-103.25 -1.539)"/>
            <path id="Tracé_1957" d="M205.465 163.61s-13.76-8.36-12 0 5.94 11 5.94 11" class="cls-3" data-name="Tracé 1957" transform="translate(-94.926 -1.539)"/>
            <path id="Tracé_1958" d="M131.33 95.36s-.77 29.06-10.46 42.27" class="cls-2" data-name="Tracé 1958" transform="translate(51.65 -1.539)"/>
            <path id="Tracé_1959" d="M165.972 109s4.4 46.68-34.79 50.64" class="cls-2" data-name="Tracé 1959" transform="translate(6.548 -1.539)"/>
            <path id="Tracé_1960" d="M168.29 159.9s-4.4 10.32-16.29 10.76" class="cls-2" data-name="Tracé 1960" transform="translate(-16.44 -1.539)"/>
            <path id="Tracé_1961" d="M171.84 122.22s-18 28.26-34.78 32.27" class="cls-3" data-name="Tracé 1961" transform="translate(-5.05 -1.539)"/>
            <path id="Tracé_1962" d="M171.84 101.08s-23.78 36.11-38.31 42.28" class="cls-3" data-name="Tracé 1962" transform="translate(-1.52 -1.539)"/>
            <path id="Tracé_1963" d="M160.17 57.05s-18.06 39.63-53.06 52" class="cls-3" data-name="Tracé 1963" transform="translate(36.57 -1.539)"/>
            <path id="Tracé_1964" d="M107.13 57.05s-6.6 11-26 13.65" class="cls-2" data-name="Tracé 1964" transform="translate(115.59 -1.539)"/>
            <path id="Tracé_1965" d="M101 63.87s-8.81 10.35-31.32 10.79" class="cls-2" data-name="Tracé 1965" transform="translate(133.17 -1.539)"/>
            <path id="Tracé_1966" d="M138.906 206.31s-1.47 35.65 23.93 53.32" class="cls-3" data-name="Tracé 1966" transform="translate(2.124 -1.539)"/>
            <path id="Tracé_1967" d="M74.888 268.86s10.57 31.27-38.75 30.39" class="cls-3" data-name="Tracé 1967" transform="translate(191.871 -1.539)"/>
            <path id="Tracé_1968" d="M131.18 297s-33.39 0-45.87 11" class="cls-1" data-name="Tracé 1968" transform="translate(87.36 -1.539)"/>
            <path id="Ligne_337" d="M25.39 0L0 44.48" class="cls-1" data-name="Ligne 337" transform="translate(141.4 313.561)"/>
            <path id="Tracé_1969" d="M188.821 220s22.9 48-6.17 70.46" class="cls-2" data-name="Tracé 1969" transform="translate(-76.191 -1.539)"/>
            <path id="Tracé_1970" d="M199.887 199.72s33.49 59.45 18.94 81.91" class="cls-1" data-name="Tracé 1970" transform="translate(-118.527 -1.539)"/>
            <path id="Tracé_1971" d="M166.12 46s-19.38 46.23-48.44 58.56" class="cls-3" data-name="Tracé 1971" transform="translate(20.05 -1.539)"/>
            <path id="Tracé_1972" d="M75.84 31.06s28.68 1.16 31.27 18.5" class="cls-3" data-name="Tracé 1972" transform="translate(120.9 -1.539)"/>
            <path id="Tracé_1973" d="M44.093 47.36s26.86 14.09 25.54 40.51" class="cls-1" data-name="Tracé 1973" transform="translate(190.077 -1.539)"/>
            <path id="Tracé_1974" d="M60 80.83S54.64 55.72 36.14 46" class="cls-1" data-name="Tracé 1974" transform="translate(207.709 -1.539)"/>
            <path id="Tracé_1975" d="M164.36 27.54s-15.85-11.45-46.68 0" class="cls-3" data-name="Tracé 1975" transform="translate(21.81 -1.539)"/>
            <path id="Tracé_1976" d="M187.26 40.31s-29.94 58.57-58.13 68.7" class="cls-1" data-name="Tracé 1976" transform="translate(-12.54 -1.539)"/>
            <path id="Ligne_338" d="M21.58 0L0 17.84" class="cls-3" data-name="Ligne 338" transform="translate(124.08 114.951)"/>
            <path id="Ligne_339" d="M15.42 0L0 18.06" class="cls-3" data-name="Ligne 339" transform="translate(116.59 109.231)"/>
            <path id="Tracé_1977" d="M250.23 16.09S186.38 2 168.32 36.35" class="cls-2" data-name="Tracé 1977" transform="translate(-114.7 -1.539)"/>
            <path id="Ligne_340" d="M3.52 0L0 33.42" class="cls-2" data-name="Ligne 340" transform="translate(74.32 151.061)"/>
            <path id="Tracé_1978" d="M186.161 249.05s24.44 29.5-17.06 61.65" class="cls-2" data-name="Tracé 1978" transform="translate(-58.562 -1.539)"/>
            <path id="Tracé_1979" d="M187.26 302.55s2.36 28 18.21 47.34" class="cls-1" data-name="Tracé 1979" transform="translate(-88.88 -1.539)"/>
            <path id="Tracé_1980" d="M211.138 205s19.53 35.24 18.34 55.93" class="cls-1" data-name="Tracé 1980" transform="translate(-136.818 -1.539)"/>
            <path id="Tracé_1981" d="M55.988 57.05s14.16 7.04 13.68 20.25" class="cls-1" data-name="Tracé 1981" transform="translate(178.181 -1.539)"/>
            <path id="Tracé_1982" d="M139.26 38.55S105.99-2.4 62.83 9.49" class="cls-3" data-name="Tracé 1982" transform="translate(101.76 -1.539)"/>
            <path id="Tracé_1983" d="M.448 147.32s3.62 7.49 8 10.57c0 0 22 14 23.27 22.43 0 0 13.21 7.07 12.33 12.8s-3.58 8.81-9.3 11.88-14.53 7.93-14.53 7.93" class="cls-2" data-name="Tracé 1983" transform="translate(259.311 -1.539)"/>
            <path id="Tracé_1984" d="M30.538 201.93s-19.81.06-11 6" class="cls-1" data-name="Tracé 1984" transform="translate(256.031 -1.539)"/>
            <path id="Tracé_1985" d="M28.31 212.94s-.39 4.84 2.25 7" class="cls-3" data-name="Tracé 1985" transform="translate(244.999 -1.539)"/>
            <path id="Tracé_1986" d="M19.81 214.81s2.64 6.77 6.11 8.91" class="cls-3" data-name="Tracé 1986" transform="translate(258.119 -1.539)"/>
            <path id="Tracé_1987" d="M52.418 242.55s4.13 6.27-1 10.4-12.87-7.95-12.87-7.95-1.33-3.25-8.26-4.35" class="cls-2" data-name="Tracé 1987" transform="translate(219.571 -1.539)"/>
            <path id="Tracé_1988" d="M53.17 223.72s-4.54-3.79-14.78 5.12-15.53 8.09-15.53 8.09" class="cls-2" data-name="Tracé 1988" transform="translate(227.819 -1.539)"/>
            <path id="Tracé_1989" d="M41.106 233.63s-5.06-.63-11.33 3.37 9.33 1.74 9.33 1.74" class="cls-1" data-name="Tracé 1989" transform="translate(234.453 -1.539)"/>
            <path id="Tracé_1990" d="M26.435 226.26s2 6.16-6.82 8.58" class="cls-2" data-name="Tracé 1990" transform="translate(257.604 -1.539)"/>
            <path id="Tracé_1991" d="M50.52 129.93s9.66 2.53 12.31 7.7" class="cls-1" data-name="Tracé 1991" transform="translate(190.499 -1.539)"/>
            <path id="Tracé_1992" d="M45.57 125.41s6.61 3.08 7.6 8.92" class="cls-1" data-name="Tracé 1992" transform="translate(205.109 -1.539)"/>
            <path id="Tracé_1993" d="M79.48 128.83s-14.53.44-19.49 2.42c0 0 14.43-8.48 29.18-9" class="cls-3" data-name="Tracé 1993" transform="translate(154.689 -1.539)"/>
            <path id="Tracé_1994" d="M53.99 156.68s19.82-9.91 23.62.41" class="cls-2" data-name="Tracé 1994" transform="translate(172.249 -1.539)"/>
            <path id="Tracé_1995" d="M75.85 167.26s-1.6 7.91-21.85-5.3" class="cls-1" data-name="Tracé 1995" transform="translate(173.999 -1.539)"/>
            <ellipse id="Ellipse_23" cx="3.9" cy="3.9" class="cls-4" data-name="Ellipse 23" rx="3.9" ry="3.9" transform="translate(239.049 155.561)"/>
            <path id="Tracé_1996" d="M39.37 93.27s10.43 11.45 8.45 41.06" class="cls-3" data-name="Tracé 1996" transform="translate(216.409 -1.539)"/>
            <path id="Tracé_1997" d="M249.547 69.27S243.278 84 204.918 83c0 0 11.89 66.38-54.17 95.12 0 0-6 11.89-3 25.1 0 0-.65 31.15 22.8 57.68 0 0 8.9 61.77-22.8 98.65S69.548 378 69.548 378s-54.16 2.46-33.69-130.71c0 0-16.51-143.31 25.11-216.19 0 0 18-40.44 97.76-23.74 0 0 64.07-25.8 105 31.23s12.08 54.68 12.08 54.68" class="cls-5" data-name="Tracé 1997" transform="translate(-13.068 -1.539)"/>
            <path id="Tracé_1998" d="M91.51 268.86s13.61 16.3 40 21.58" class="cls-3" data-name="Tracé 1998" transform="translate(80.83 -1.539)"/>
            <path id="Tracé_1999" d="M59.99 345.27s36.11 2 81.91 26.42" class="cls-3" data-name="Tracé 1999" transform="translate(101.96 -1.539)"/>
            <path id="Tracé_2000" d="M303.85 326.22S269.49 336 245.39 379" class="cls-3" data-name="Tracé 2000" transform="translate(-245.39 -1.539)"/>
            <path id="Ligne_341" d="M0 0l3.52 7.07" class="cls-2" data-name="Ligne 341" transform="translate(222.719 148.071)"/>
            <path id="Ligne_342" d="M0 0l4.08 6.9" class="cls-2" data-name="Ligne 342" transform="translate(226.239 146.491)"/>
            <path id="Ligne_343" d="M0 0l3.83 8.3" class="cls-2" data-name="Ligne 343" transform="translate(230.759 143.681)"/>
            <path id="Ligne_344" d="M0 0l2.33 9.38" class="cls-2" data-name="Ligne 344" transform="translate(236.209 141.821)"/>
            <path id="Tracé_2001" d="M67.8 161s.63 6.24-6.3 5.94a6.71 6.71 0 0 1-6.91-6.61" class="cls-2" data-name="Tracé 2001" transform="translate(181.454 -1.539)"/>
        </g>
    </g>
</svg>
