<svg xmlns="http://www.w3.org/2000/svg" width="826" height="695.003" viewBox="0 0 826 695.003">
    <defs>
        <style>
            .cls-1,.cls-2,.cls-6{fill:#fff}.cls-1,.cls-2{font-size:10px;font-family:Montserrat-SemiBold,Montserrat;font-weight:600}.cls-2{font-size:11px}.cls-3,.cls-4{fill:none;stroke-miterlimit:10}.cls-3{stroke:#ffd058;stroke-width:2px}.cls-4{stroke:#000}.cls-5{fill:#ffd058}.cls-6{font-size:12px;font-family:Montserrat-MediumItalic,Montserrat;font-weight:500;font-style:italic}.cls-7{font-family:Montserrat-Bold,Montserrat;font-weight:700;font-style:normal}
        </style>
    </defs>
    <g id="Graphique" transform="translate(-184.609)">
        <g id="Groupe_127" data-name="Groupe 127" transform="translate(334.218 650.485)">
            <g id="Groupe_124" data-name="Groupe 124" transform="translate(0 30.163)">
                <text id="_0" class="cls-1" data-name="0" transform="translate(0 10.354)">
                    <tspan x="0" y="0">0</tspan>
                </text>
                <text id="_1000" class="cls-1" data-name="1000" transform="translate(113.11 10.354)">
                    <tspan x="0" y="0">1000</tspan>
                </text>
                <text id="_2000" class="cls-2" data-name="2000" transform="translate(244.26 11.354)">
                    <tspan x="0" y="0">2000</tspan>
                </text>
                <text id="_3000" class="cls-2" data-name="3000" transform="translate(377.72 11.354)">
                    <tspan x="0" y="0">3000</tspan>
                </text>
                <text id="_4000" class="cls-2" data-name="4000" transform="translate(510.062 11.354)">
                    <tspan x="0" y="0">4000</tspan>
                </text>
                <text id="_5000" class="cls-2" data-name="5000" transform="translate(644.271 11)">
                    <tspan x="0" y="0">5000</tspan>
                </text>
            </g>
            <path id="Ligne_291" d="M0 0h667.441" class="cls-3" data-name="Ligne 291" transform="translate(7.95 16.852)"/>
            <g id="Groupe_126" data-name="Groupe 126" transform="translate(7.95)">
                <g id="Groupe_125" data-name="Groupe 125">
                    <path id="Ligne_292" d="M0 16.852V0" class="cls-4" data-name="Ligne 292"/>
                    <path id="Ligne_293" d="M0 16.852V0" class="cls-3" data-name="Ligne 293" transform="translate(133.488)"/>
                    <path id="Ligne_294" d="M0 16.852V0" class="cls-3" data-name="Ligne 294" transform="translate(266.976)"/>
                    <path id="Ligne_295" d="M0 16.852V0" class="cls-3" data-name="Ligne 295" transform="translate(400.465)"/>
                    <path id="Ligne_296" d="M0 16.852V0" class="cls-3" data-name="Ligne 296" transform="translate(533.953)"/>
                    <path id="Ligne_297" d="M0 16.852V0" class="cls-3" data-name="Ligne 297" transform="translate(667.441)"/>
                </g>
            </g>
        </g>
        <g id="Groupe_130" data-name="Groupe 130" transform="translate(342.168)">
            <path id="Ligne_298" d="M0 667.337V0" class="cls-3" data-name="Ligne 298"/>
            <g id="Groupe_129" data-name="Groupe 129" transform="translate(0 22.245)">
                <g id="Groupe_128" data-name="Groupe 128">
                    <path id="Ligne_299" d="M0 0h16.855" class="cls-4" data-name="Ligne 299" transform="translate(0 622.848)"/>
                    <path id="Ligne_300" d="M0 0h16.855" class="cls-4" data-name="Ligne 300" transform="translate(0 578.359)"/>
                    <path id="Ligne_301" d="M0 0h16.855" class="cls-4" data-name="Ligne 301" transform="translate(0 533.87)"/>
                    <path id="Ligne_302" d="M0 0h16.855" class="cls-4" data-name="Ligne 302" transform="translate(0 489.381)"/>
                    <path id="Ligne_303" d="M0 0h16.855" class="cls-4" data-name="Ligne 303" transform="translate(0 444.891)"/>
                    <path id="Ligne_304" d="M0 0h16.855" class="cls-4" data-name="Ligne 304" transform="translate(0 400.402)"/>
                    <path id="Ligne_305" d="M0 0h16.855" class="cls-4" data-name="Ligne 305" transform="translate(0 355.913)"/>
                    <path id="Ligne_306" d="M0 0h16.855" class="cls-4" data-name="Ligne 306" transform="translate(0 311.424)"/>
                    <path id="Ligne_307" d="M0 0h16.855" class="cls-4" data-name="Ligne 307" transform="translate(0 266.935)"/>
                    <path id="Ligne_308" d="M0 0h16.855" class="cls-4" data-name="Ligne 308" transform="translate(0 222.446)"/>
                    <path id="Ligne_309" d="M0 0h16.855" class="cls-4" data-name="Ligne 309" transform="translate(0 177.957)"/>
                    <path id="Ligne_310" d="M0 0h16.855" class="cls-4" data-name="Ligne 310" transform="translate(0 133.467)"/>
                    <path id="Ligne_311" d="M0 0h16.855" class="cls-4" data-name="Ligne 311" transform="translate(0 88.978)"/>
                    <path id="Ligne_312" d="M0 0h16.855" class="cls-4" data-name="Ligne 312" transform="translate(0 44.489)"/>
                    <path id="Ligne_313" d="M0 0h16.855" class="cls-4" data-name="Ligne 313"/>
                </g>
            </g>
        </g>
        <g id="Groupe_133" data-name="Groupe 133" transform="translate(342.168 6.067)">
            <g id="Groupe_132" data-name="Groupe 132">
                <g id="Groupe_131" data-name="Groupe 131">
                    <path id="Rectangle_87" d="M0 0h39.777v32.356H0z" class="cls-5" data-name="Rectangle 87"/>
                    <path id="Rectangle_88" d="M0 0h53.26v32.356H0z" class="cls-5" data-name="Rectangle 88" transform="translate(0 44.489)"/>
                    <path id="Rectangle_89" d="M0 0h100.453v32.356H0z" class="cls-5" data-name="Rectangle 89" transform="translate(0 88.978)"/>
                    <path id="Rectangle_90" d="M0 0h133.488v32.356H0z" class="cls-5" data-name="Rectangle 90" transform="translate(0 133.467)"/>
                    <path id="Rectangle_91" d="M0 0h200.232v32.356H0z" class="cls-5" data-name="Rectangle 91" transform="translate(0 177.957)"/>
                    <path id="Rectangle_92" d="M0 0h240.009v32.356H0z" class="cls-5" data-name="Rectangle 92" transform="translate(0 222.446)"/>
                    <path id="Rectangle_93" d="M0 0h186.749v32.356H0z" class="cls-5" data-name="Rectangle 93" transform="translate(0 266.935)"/>
                    <path id="Rectangle_94" d="M0 0h533.953v32.356H0z" class="cls-5" data-name="Rectangle 94" transform="translate(0 311.424)"/>
                    <path id="Rectangle_95" d="M0 0h573.73v32.356H0z" class="cls-5" data-name="Rectangle 95" transform="translate(0 355.913)"/>
                    <path id="Rectangle_96" d="M0 0h600.697v32.356H0z" class="cls-5" data-name="Rectangle 96" transform="translate(0 400.402)"/>
                    <path id="Rectangle_97" d="M0 0h533.953v32.356H0z" class="cls-5" data-name="Rectangle 97" transform="translate(0 444.891)"/>
                    <path id="Rectangle_98" d="M0 0h506.986v32.356H0z" class="cls-5" data-name="Rectangle 98" transform="translate(0 489.381)"/>
                    <path id="Rectangle_99" d="M0 0h533.953v32.356H0z" class="cls-5" data-name="Rectangle 99" transform="translate(0 533.87)"/>
                    <path id="Rectangle_100" d="M0 0h560.92v32.356H0z" class="cls-5" data-name="Rectangle 100" transform="translate(0 578.359)"/>
                    <path id="Rectangle_101" d="M0 0h580.471v32.356H0z" class="cls-5" data-name="Rectangle 101" transform="translate(0 622.848)"/>
                </g>
            </g>
        </g>
        <g id="Groupe_134" data-name="Groupe 134" transform="translate(78.609 12.237)">
            <text id="Rio_2016" class="cls-6" data-name="Rio 2016" transform="translate(193 635.846)">
                <tspan x="0" y="0">Rio </tspan><tspan y="0" class="cls-7">2016</tspan>
            </text>
            <text id="Londres_2012" class="cls-6" data-name="Londres 2012" transform="translate(164 592.018)">
                <tspan x="0" y="0">Londres </tspan><tspan y="0" class="cls-7">2012</tspan>
            </text>
            <text id="Pékin_2008" class="cls-6" data-name="Pékin 2008" transform="translate(174 546.625)">
                <tspan x="0" y="0">Pékin </tspan><tspan y="0" class="cls-7">2008</tspan>
            </text>
            <text id="Athènes_2004" class="cls-6" data-name="Athènes 2004" transform="translate(157 504.361)">
                <tspan x="0" y="0">Athènes </tspan><tspan y="0" class="cls-7">2004</tspan>
            </text>
            <text id="Sydney_2000" class="cls-6" data-name="Sydney 2000" transform="translate(164 458.968)">
                <tspan x="0" y="0">Sydney </tspan><tspan y="0" class="cls-7">2000</tspan>
            </text>
            <text id="Atlanta_1996" class="cls-6" data-name="Atlanta 1996" transform="translate(166 415.14)">
                <tspan x="0" y="0">Atlanta </tspan><tspan y="0" class="cls-7">1996</tspan>
            </text>
            <text id="Barcelone_1992" class="cls-6" data-name="Barcelone 1992" transform="translate(150 369.746)">
                <tspan x="0" y="0">Barcelone </tspan><tspan y="0" class="cls-7">1992</tspan>
            </text>
            <text id="Séoul_1988" class="cls-6" data-name="Séoul 1988" transform="translate(178 324.353)">
                <tspan x="0" y="0">Séoul </tspan><tspan y="0" class="cls-7">1988</tspan>
            </text>
            <text id="New_York_et_Stoke_Mandeville_1984" class="cls-6" data-name="New York et Stoke Mandeville 1984" transform="translate(243 273.96)">
                <tspan x="-73.296" y="0">New York et</tspan><tspan x="-136.488" y="15">Stoke Mandeville </tspan><tspan y="15" class="cls-7">1984</tspan>
            </text>
            <text id="Arnhem_1980" class="cls-6" data-name="Arnhem 1980" transform="translate(161 235.132)">
                <tspan x="0" y="0">Arnhem </tspan><tspan y="0" class="cls-7">1980</tspan>
            </text>
            <text id="Toronto_1976" class="cls-6" data-name="Toronto 1976" transform="translate(166 191.303)">
                <tspan x="0" y="0">Toronto </tspan><tspan y="0" class="cls-7">1976</tspan>
            </text>
            <text id="Heidelberg_1972" class="cls-6" data-name="Heidelberg 1972" transform="translate(145 147.475)">
                <tspan x="0" y="0">Heidelberg </tspan><tspan y="0" class="cls-7">1972</tspan>
            </text>
            <text id="Tel_Aviv_1968" class="cls-6" data-name="Tel Aviv 1968" transform="translate(166 102.526)">
                <tspan x="0" y="0">Tel Aviv </tspan><tspan y="0" class="cls-7">1968</tspan>
            </text>
            <text id="Tokyo_1964" class="cls-6" data-name="Tokyo 1964" transform="translate(176 57.752)">
                <tspan x="0" y="0">Tokyo </tspan><tspan y="0" class="cls-7">1964</tspan>
            </text>
            <text id="Rome_1960" class="cls-6" data-name="Rome 1960" transform="translate(175 13)">
                <tspan x="0" y="0">Rome </tspan><tspan y="0" class="cls-7">1960</tspan>
            </text>
        </g>
    </g>
</svg>
