<svg xmlns="http://www.w3.org/2000/svg" width="43.863" height="43.863" viewBox="0 0 43.863 43.863">
    <defs>
        <style>
            .cls-1{fill:#64dfc7}
        </style>
    </defs>
    <path id="cross" d="M90.608 87.235l17.917-17.917a2.2 2.2 0 0 0 0-3.106l-.266-.266a2.2 2.2 0 0 0-3.106 0L87.236 83.864 69.319 65.947a2.2 2.2 0 0 0-3.106 0l-.266.266a2.2 2.2 0 0 0 0 3.106l17.918 17.916-17.917 17.917a2.2 2.2 0 0 0 0 3.106l.266.266a2.2 2.2 0 0 0 3.106 0l17.916-17.917 17.917 17.917a2.2 2.2 0 0 0 3.106 0l.266-.266a2.2 2.2 0 0 0 0-3.106z" class="cls-1" transform="translate(-65.305 -65.304)"/>
</svg>
