<svg xmlns="http://www.w3.org/2000/svg" viewBox="0 0 350.92 173.57"><defs><style>.cls-1,.cls-9{fill:#8338ec;}.cls-1,.cls-2{stroke:#333;stroke-miterlimit:10;fill-rule:evenodd;}.cls-2,.cls-4{fill:#64dfc7;}.cls-3{font-size:30px;fill:#fff;font-family:Montserrat-Bold, Montserrat;letter-spacing:0.03em;}.cls-3,.cls-4,.cls-9{font-weight:700;}.cls-4,.cls-9{font-size:18px;font-family:SFProDisplay-Bold, SF Pro Display;}.cls-10,.cls-11,.cls-5,.cls-6{fill:#fdfdff;font-family:SFProDisplay-Regular, SF Pro Display;font-weight:400;}.cls-6{letter-spacing:-0.02em;}.cls-7,.cls-8{fill:none;stroke:#fdfdff;stroke-linecap:round;stroke-linejoin:round;stroke-width:2px;}.cls-7{stroke-dasharray:7;}.cls-10{letter-spacing:0em;}.cls-11{letter-spacing:-0.02em;}</style></defs><title>frederic francois</title><g id="Calque_2" data-name="Calque 2"><g id="Calque_1-2" data-name="Calque 1"><path class="cls-1" d="M246.44,134A78.06,78.06,0,0,1,111.24,56c14.36-24.87,38.89-39,67.6-39V53.39h-.31a41.5,41.5,0,1,0,36,62.19Z"/><path class="cls-2" d="M256.9,95a74.6,74.6,0,0,1-10.46,39l-31.93-18.44a41.51,41.51,0,0,0-35.67-62.19V16.94A78.05,78.05,0,0,1,256.9,95Z"/><text class="cls-3" transform="translate(170.02 104.91)">3</text><text class="cls-4" transform="translate(288.12 15.34)">1<tspan class="cls-5" x="8.64" y="0" xml:space="preserve"> A</tspan><tspan class="cls-6" x="23.69" y="0">r</tspan><tspan class="cls-5" x="28.79" y="0">gent</tspan></text><g id="trait"><line class="cls-7" x1="219.3" y1="57.19" x2="258.48" y2="9.66"/><line class="cls-8" x1="258.48" y1="9.66" x2="279.01" y2="9.66"/></g><g id="trait-2" data-name="trait"><line class="cls-7" x1="123.39" y1="112.74" x2="91.4" y2="152.04"/><line class="cls-8" x1="92.39" y1="151.04" x2="71.86" y2="151.16"/></g><text class="cls-9" transform="matrix(1, -0.01, 0.01, 1, 0.09, 155.1)">2<tspan class="cls-5" x="10.85" y="0" xml:space="preserve"> B</tspan><tspan class="cls-6" x="25.43" y="0">r</tspan><tspan class="cls-5" x="30.53" y="0">o</tspan><tspan class="cls-10" x="40.09" y="0">n</tspan><tspan class="cls-11" x="49.48" y="0">z</tspan><tspan class="cls-5" x="57.55" y="0">e</tspan></text></g></g></svg>