<svg xmlns="http://www.w3.org/2000/svg" viewBox="0 0 80.6 59.78"><defs><style>.cls-1{fill:#ed5469;}</style></defs><title>3Fichier 15</title><g id="Calque_2" data-name="Calque 2"><g id="Calque_2-2" data-name="Calque 2"><path class="cls-1" d="M46.08,27.25c-4.59-5.68-6.76-6-12.08-1.21C23.41,35.48,12.92,45,2.41,54.57,1.14,55.72-1,57,.58,59s3.31.06,4.75-.88c9.93-6.49,20-12.83,29.68-19.65,3.64-2.56,6.32-3,9,.68.72,1,3.33,1.06,1.78,3.2-1.13,1.56-2.64,1.48-4.42.89-6.41-2.12-8.49-.45-8.53,7.11a18.38,18.38,0,0,0,1.21,7.26c.33.92.7,2.12,1.88,1.89,1.72-.33,1.08-1.71.79-2.76-.84-3-1.69-6-1-9.22.48-2.08,1.29-3.49,3.71-2.14,4.57,2.56,9,.74,13.28-.68,3.54-1.17,4.07-3.59,1.84-6.51Q50.43,32.64,46.08,27.25Z"/><path class="cls-1" d="M31.7,13.1Q36.86,11.5,42,9.76c1.39-.47,3.13-1.69,4.14-.48,4.41,5.3,6.73,0,10.58-1.63-4.32-1.93-7.42-6-11.64-4.58C40,4.74,35.35,7.77,30.55,10.25c-.71.37-1.54.94-1.27,1.88C29.62,13.32,30.72,13.4,31.7,13.1Z"/><path class="cls-1" d="M69.49,11.53a5.44,5.44,0,0,0,5.77-6A5.33,5.33,0,0,0,69.52,0C65.83.06,64,2.38,63.67,5.82,64.09,9.46,66.17,11.54,69.49,11.53Z"/><path class="cls-1" d="M80.26,20.47c-1-1.51-2.64-.55-4,.07s-3.1,1.12-4.52,1.92c-3.75,2.11-6.17,2-6.84-3.07a22.3,22.3,0,0,0-2.34-7,4.35,4.35,0,0,0-5.42-2.31c-2.27.69-3.53,2.3-3.57,5.78a63.9,63.9,0,0,0,9.22,15c1.2,1.45,2.76.44,4-.32,3.82-2.25,7.64-4.5,11.38-6.87C79.31,23,81.42,22.28,80.26,20.47Z"/><path class="cls-1" d="M69.52,0c3.55,0,5.74,2.21,5.74,5.52,0,3.77-1.82,6-5.77,6-3.32,0-5.82-1.95-5.82-5.71C63.67,2.32,65.83,0,69.52,0Zm-39,10.25C35.35,7.77,40,4.74,45.06,3.07c4.22-1.4,7.32,2.65,11.64,4.58-3.85,1.66-6.17,6.93-10.58,1.63-1-1.21-2.75,0-4.14.48Q36.87,11.5,31.7,13.1c-1,.3-2.08.22-2.42-1C29,11.19,29.84,10.62,30.55,10.25ZM52.79,44.66c-4.32,1.42-8.71,3.24-13.28.68-2.42-1.35-3.23.06-3.71,2.14-.73,3.19.12,6.2,1,9.22.29,1,.93,2.43-.79,2.76-1.18.23-1.55-1-1.88-1.89a18.38,18.38,0,0,1-1.21-7.26c0-7.56,2.12-9.23,8.53-7.11,1.78.59,3.81.94,4.42-.89.35-1.06-1.06-2.23-1.78-3.2-2.72-3.64-5.4-3.24-9-.68-9.7,6.82-19.75,13.16-29.68,19.65C3.89,59,2.15,60.84.58,59s.56-3.24,1.83-4.39C12.92,45,23.41,35.48,34,26c5.32-4.75,7.49-4.47,12.08,1.21q4.37,5.38,8.55,10.9C56.86,41.07,56.33,43.49,52.79,44.66Zm25.4-20.95c-3.74,2.37-7.56,4.62-11.38,6.87-1.27.76-2.83,1.77-4,.32a63.9,63.9,0,0,1-9.22-15c-1.44-3.31,1.3-5.09,3.57-5.78a4.35,4.35,0,0,1,5.42,2.31,22.3,22.3,0,0,1,2.34,7c.67,5,3.09,5.18,6.84,3.07,1.42-.8,3-1.24,4.52-1.92s3-1.58,4-.07C81.42,22.28,79.31,23,78.19,23.71Z"/></g></g></svg>