<svg xmlns="http://www.w3.org/2000/svg" width="289.459" height="380" viewBox="0 0 289.459 380">
    <defs>
        <style>
            .cls-1{fill:#2b2b2b}
        </style>
    </defs>
    <g id="Calque_2" data-name="Calque 2" transform="translate(.008 -.003)">
        <g id="Calque_1" data-name="Calque 1" transform="translate(-.008 .003)">
            <path id="Tracé_1812" d="M40.755 57.082c-12.594 19.431-19.235 42.75-25.676 65.625C7.714 148.87.288 175.389 0 202.775c-.467 46.083 20.139 90.725 50.964 121.307s71.014 47.861 111.868 53.993c15.378 2.311 31.163 3.111 46.272-.844 17.117-4.444 32.525-14.843 47.028-25.952 8.946-6.832 17.893-14.254 23.648-24.441 6.65-11.71 8.549-25.964 9.314-39.8 1.412-25.752-.994-52.982-13.837-74.435-9.94-16.665-25.845-29.485-30.288-48.883-5.1-22.286 6.849-44.672 9.235-67.525a80.614 80.614 0 0 0-12.654-52.46C195.417-24.9 82.137-6.866 40.755 57.082z" class="cls-1" data-name="Tracé 1812" transform="translate(.008 -.003)"/>
        </g>
    </g>
</svg>
