<svg xmlns="http://www.w3.org/2000/svg" id="Calque_2" width="99.968" height="78.819" data-name="Calque 2" viewBox="0 0 99.968 78.819">
    <defs>
        <style>
            .cls-1{fill:#64dfc7}
        </style>
    </defs>
    <g id="Calque_3" data-name="Calque 3">
        <path id="Tracé_1817" d="M65.878 14.689c0-4.717-3.209-7.539-7.965-7.539s-7.333 3.183-7.333 7.939c0 4.33 3.016 7.14 7.462 7.166 4.807 0 7.836-2.771 7.836-7.565" class="cls-1" data-name="Tracé 1817" transform="translate(14.607 2.061)"/>
        <path id="Tracé_1818" d="M35.635 24.851a.657.657 0 0 1 .219.979l-.412.58a.683.683 0 0 1-.786.271c-.477-.168-27.58-14.074-27.58-14.074S0 8.135 0 7.375s2.049.464 2.8.812 32.835 16.664 32.835 16.664z" class="cls-1" data-name="Tracé 1818" transform="translate(0 2.056)"/>
        <path id="Tracé_1819" d="M40.834 12.322s17.682-.889 16.754 4.627-10.194 2.268-10.194 2.268-16.664-2.578-22.618 2.642l-2.926-1.108s8.918-7.851 18.984-8.429z" class="cls-1" data-name="Tracé 1819" transform="translate(6.31 3.54)"/>
        <path id="Tracé_1820" d="M63.727.45s.9-.851 1.482-.206-.4 1.289-.4 1.289-9.95 9.022-10.246 9.473a6.444 6.444 0 0 0-1.147 1.7 28.483 28.483 0 0 1-2.8 3.673l-13.27 11.394a10.387 10.387 0 0 0-1.446 2.152 117.3 117.3 0 0 1-7.06 10.194c-.193-.116-4.317-3.944-4.047-4.369s14.447-13.6 14.447-13.6z" class="cls-1" data-name="Tracé 1820" transform="translate(7.156 -.003)"/>
        <path id="Tracé_1821" d="M40.9 34.345s-4.923-3.725-2.023-7.733 11.174 2.2 11.174 2.2 14.177 8.016 13.068 19.938c-.567 6.251-3.66 11.5-5.052 12.63s-5.367 6.37-4.681 6.448a8.4 8.4 0 0 0 5.941-1.766c1.534-1.2 1.753 1.74 1.392 2.578-.322.528-11.032.155-11.032.155v-2.089s6.07-10.529 5.761-16.754c-.193-3.712-4.627-8.725-6.74-10.529-1.07-.619-7.449 8.119-15.375 10.968 0 0-4.936 1.469-5.619-.709-.232-.786-3.583 3.042-6.238 3.4a29.1 29.1 0 0 1-6.444.657c-2.474-.142-3.75.979-4.189 2.178L9 55.494s1.7-3.183 3.235-3.3 6.547-.4 7.23-.4a6.341 6.341 0 0 0 4.446-1.856c2.178-1.843 7.32-6.444 9.5-7.991a80.124 80.124 0 0 0 7.488-7.6z" class="cls-1" data-name="Tracé 1821" transform="translate(2.599 7.293)"/>
        <path id="Tracé_1822" d="M2.2 49.2c-.451-.116-.619-.825-.619-1.289s0-1.289.309-1.289 49.94 13.917 49.94 13.917V62.7h-3.621z" class="cls-1" data-name="Tracé 1822" transform="translate(.456 13.46)"/>
        <path id="Tracé_1823" d="M18.99 62.335a.593.593 0 0 1-.58-.619v-1.6s0-.309.49-.322l70.484-.49a9.022 9.022 0 0 0 3.325-2.062c.541-.464 2.2.219 1.907 1.005s-2.2 3.673-3.866 3.738-71.76.35-71.76.35z" class="cls-1" data-name="Tracé 1823" transform="translate(5.317 16.484)"/>
    </g>
</svg>
