<svg xmlns="http://www.w3.org/2000/svg" id="Calque_2" width="85.297" height="87.405" data-name="Calque 2" viewBox="0 0 85.297 87.405">
    <defs>
        <style>
            .cls-1{fill:#ffd058}
        </style>
    </defs>
    <g id="Calque_3" data-name="Calque 3">
        <path id="Tracé_1836" d="M56.409 7.114C56.409 2.668 53.393 0 48.9 0S42 3 42 7.488c0 4.111 2.835 6.689 7.024 6.753 4.524 0 7.385-2.578 7.385-7.127" class="cls-1" data-name="Tracé 1836" transform="translate(12.11)"/>
        <path id="Tracé_1837" d="M68.91 19.2a65.341 65.341 0 0 0-10.89-6.444c-1.366-.632-2.964.722-3.493 2.449a3.235 3.235 0 0 0 1.727 4.356c3.08 1.431 6.289 2.578 9.408 3.957a2.243 2.243 0 0 0 3.183-.967c.619-.876 1.431-2.191.064-3.338" class="cls-1" data-name="Tracé 1837" transform="translate(15.641 3.638)"/>
        <path id="Tracé_1838" d="M44.447 17.631s4.163-.528 3.66-4.33-8.686-2.938-10.246-2.681-19.061.683-21.42.245-2.784.361-2.036.773 21.91 7.553 30.042 5.993z" class="cls-1" data-name="Tracé 1838" transform="translate(4.044 2.99)"/>
        <path id="Tracé_1839" d="M37.273 21.076s7.733-3.312 10.31 1.121a70.884 70.884 0 0 1 4.82 9.5c.18.554.309 1.469.76 1.108s4.214-4.433 7.063-3.286 4.549 3.622 2.307 8.79S45.5 54.366 39.992 56.879c-2.719 1.289-2.487.9-2.011 0s6.1-10.13 6.16-10.31a1.92 1.92 0 0 0 .142-2.049 52.325 52.325 0 0 1-3.712-14.177s.271-.735-1.675-.18-21.51 6.444-21.51 6.444-1.572.49-1.031-.271a112.783 112.783 0 0 1 20.918-15.26z" class="cls-1" data-name="Tracé 1839" transform="translate(4.671 5.743)"/>
        <path id="Tracé_1840" d="M2.315 34.38a6.766 6.766 0 0 1-2.23-6.057 4.24 4.24 0 0 1 .979-2.2c2-2.23 5.838-3.312 7.063-1.289S40.412 60.31 55.143 69.5c5.374 3.866 7.346 5.155 3.222 8.583s-6.985 2.81-9.022.954-18.03-18.662-23.12-23.367C22.562 52.281 7.548 39.2 2.315 34.38z" class="cls-1" data-name="Tracé 1840" transform="translate(-.015 6.862)"/>
    </g>
</svg>
