<svg xmlns="http://www.w3.org/2000/svg" viewBox="0 0 89.92 25.88"><defs><style>.cls-1{fill:#FFD058;}</style></defs><title>3Fichier 14</title><g id="Calque_2" data-name="Calque 2"><g id="Calque_2-2" data-name="Calque 2"><path class="cls-1" d="M89.92,23c0-2.37-10.25-3.65-15.29-4.3-3.14-.41-3.83,1.52-4.4,3.89-.36,1.46-.46,2.91,1.23,3C80,25.88,89.92,25.88,89.92,23Z"/><path class="cls-1" d="M68.59,18.49c0-4.34-2.85-6.57-7.38-6.57-4.05,0-6.33,2.71-6.33,6.61,0,4.46,2.71,7.35,6.72,7.35C66.29,25.88,68.59,22.66,68.59,18.49Z"/><path class="cls-1" d="M24.35,6.23a2.73,2.73,0,0,0,3.1,2.33,24.74,24.74,0,0,0,5-.92c2.74-.79,4.77.11,5.25,2.81.56,3.18-2.29,2.93-4.24,3.25C22.27,15.56,11.18,17.85,0,23.74A3.42,3.42,0,0,0,2.82,25.4c14.93-1.12,27.68.72,41.48.09,7.4-.34,10-7.63,5.78-14A75.25,75.25,0,0,0,43.75,3.4C39.81-1,29-1.15,25.27,3.18A4.37,4.37,0,0,0,24.35,6.23Z"/></g></g></svg>
