<svg xmlns="http://www.w3.org/2000/svg" viewBox="0 0 322.01 170.51"><defs><style>.cls-1,.cls-8{fill:#8338ec;}.cls-1,.cls-2{stroke:#333;stroke-miterlimit:10;fill-rule:evenodd;}.cls-2,.cls-4{fill:#ffd058;}.cls-3{font-size:30px;fill:#fff;font-family:Montserrat-Bold, Montserrat;letter-spacing:0.03em;}.cls-3,.cls-4,.cls-8{font-weight:700;}.cls-4,.cls-8{font-size:18px;font-family:SFProDisplay-Bold, SF Pro Display;}.cls-10,.cls-11,.cls-12,.cls-5,.cls-9{fill:#fdfdff;}.cls-10,.cls-11,.cls-12,.cls-5{font-family:SFProDisplay-Regular, SF Pro Display;font-weight:400;}.cls-6,.cls-7{fill:none;stroke:#fdfdff;stroke-linecap:round;stroke-linejoin:round;stroke-width:2px;}.cls-6{stroke-dasharray:7;}.cls-10{letter-spacing:-0.02em;}.cls-11{letter-spacing:0em;}.cls-12{letter-spacing:-0.02em;}</style></defs><title>thomas clarion_1</title><g id="Calque_2" data-name="Calque 2"><g id="Calque_1-2" data-name="Calque 1"><path class="cls-1" d="M247.75,83a78.06,78.06,0,1,1-78.06-78V41.39h-.31A41.5,41.5,0,1,0,210.88,83Z"/><path class="cls-2" d="M210.88,83v-.1a41.5,41.5,0,0,0-41.19-41.5V4.94A78.05,78.05,0,0,1,247.75,83Z"/><text class="cls-3" transform="translate(159.7 92.91)">4</text><text class="cls-4" transform="translate(290.97 15.34)">1<tspan class="cls-5" x="8.64" y="0" xml:space="preserve"> Or</tspan></text><g id="trait"><line class="cls-6" x1="222.15" y1="57.19" x2="261.33" y2="9.66"/><line class="cls-7" x1="261.33" y1="9.66" x2="281.86" y2="9.66"/></g><text class="cls-8" transform="translate(0 159.67)">3<tspan class="cls-9" x="11.34" y="0"> </tspan><tspan class="cls-5" x="14.9" y="0">B</tspan><tspan class="cls-10" x="25.78" y="0">r</tspan><tspan class="cls-5" x="30.88" y="0">o</tspan><tspan class="cls-11" x="40.44" y="0">n</tspan><tspan class="cls-12" x="49.83" y="0">z</tspan><tspan class="cls-5" x="57.9" y="0">e</tspan></text><g id="trait-2" data-name="trait"><line class="cls-6" x1="124.06" y1="116.75" x2="91.82" y2="155.85"/><line class="cls-7" x1="92.82" y1="154.85" x2="72.29" y2="154.85"/></g></g></g></svg>