<svg xmlns="http://www.w3.org/2000/svg" width="291.241" height="115.237" viewBox="0 0 291.241 115.237">
  <g id="Groupe_196" data-name="Groupe 196" transform="translate(-1345.759 -273)">
    <g id="noun_map_of_france_1716526" data-name="noun_map of france_1716526" transform="translate(1339 267.516)">
      <g id="Groupe_110" data-name="Groupe 110" transform="translate(6.759 5.484)">
        <path id="Tracé_1948" data-name="Tracé 1948" d="M110.534,96.574l1.034.047.47-.705-.282-1.174.752-1.5.845-.423-.234-1.55L112.6,90.7l-2.3,1.222-1.081-.564-.657-.893-1.552-.279-.375-.752-.752-.47.188-1.315-.564-.7.611-.845.234-1.034.94-.8-.516-.657-.47-1.034-1.456-.094-.423-.329-.468-1.456-.657-.423-.094-.7.657-.47.94.188.516.094v-.8l.7-.47L107.2,77.5l-.047-.893.423-.986-.564-.611-.047-.375-.845-.564-.141-1.127-1.222-.375-.516-2.115.657-.516h.986V68.671l-.8-1.127-.47-.329-.141-.7-.94-.564.893-.893-.47-.845-.516-.8-2.208.188-1.081.878-.8-.456-.234,1.034.282.7-1.363.893-1.363-.094.047-.845.564-.282h.845l-.234-.953.423-.456-.611-.657V62.187l.141-.8.611-.775,1.785-1.621.47-.657.047-1.55,1.644-1.456.47-.986L104,52.98l.423-.94.611-.94-1.081-.329.8-.8,1.363-.7.234.986h.845l1.409-.657.282-1.034V48.1l-.7-1.363.564-1.268V44.242l.375-.7v-.986l-.236-.657.375-1.691.516-.47.141-1.222.094-.94.375-3.054,1.268-1.174.752-.611.375-1.456.564-1.034L111,29.4l-.611.234-.657-.188-.986.329-1.691-1.268h-.986l-.893.611-1.268-.234-.8-.893-1.174.516-.845-.141-.375-.564-.234-.845-.7-.375-.047-.845L98.7,25.171l-1.268.047-.986-.611-1.268.657-.94-.375h-.613l-.47-1.222-1.268.516-.141.47-1.081.188-.282-.8-.7-.375-.375-.8L87.516,22.3l-.423-.752-1.315-.188.047-1.081-.47-.893.282-.8-.329-.423.188-1.034-.47-.188-1.034.893-.047,1.5-1.879.47-.8-.705h-.941l-.7-.516.7-.845-.564-.657.047-.7.516-.657-1.409-1.175-1.879-.047-.94.657-.047-1.644-.564-.7-1.175-.282-.7.188-.94-.516V10.323L72.1,9.948l-.47-.7-1.267.281-.7.657-.845-.047-.375-1.127-.9-.564.193-1.55-.705-1.409-1.127.423-2.067.657-2.819.4-1.879,1.48V15.4l1.315,1.175-.141.752-1.456-.7L57.637,18.4l-2.865,1.833L50.73,21.41l-2.3,1.034L47.16,24.135v.986l.986.752h.94v.564H47.958l-2.631,1.127-1.034.564-1.5-.8-3.617-.94-2.02.329v-.986l-.986-1.081V23.618h.564l-.564-1.175-1.222-.282-1.034.7-2.865-1.127.423,1.268-.141.845.329,1.738,1.222,1.268.47,1.6L33.253,30.1l.47.8v1.315l-.375.986.423,1.5.94.516-.094.423-1.456.236H31.468l-.752-.423L31,34.7l-.94-.047-.47.752h-.7l-.516.47-.7-.562h-.282v-.47l-1.691.8-1.081.236-.236.8h-.282l-.47-.893-.657-.141V34.517l-.657-.282V33.67l-.611-.423v-.423l-.516-.188V32.12l-.611.047V32.4l-.8-.236-1.081.188-.516.375L17.61,32.4l-.564.564-.611,1.081-1.268-.47-.329.94-.657-.282L13.665,34V33.34l-.564.423-.893-.234-.564.47-1.127-.423-.468.282-1.268-.047-.422.752-1.268.657.375.47-.705.516.234,1.222H8.919l1.315-1.034-.186.846h.611l.8.986-.094.564-2.349-.564L8.5,37.8l-.375.375.282.282.141.893.423-.329,1.456.329.188,1.315H9.437l-1.268.375H7.182l.611.516h.845l1.034,1.456-.047,1.456h1.456v-.752l1.6.564.329-.375.8,1.081H14.7l.845.234h.8l.7.986H17.8l.845.611.893,1.5h.657l.236-.375.657.7-.094-.8.047-.657.611.7.657-.047.893.8-.423.188-.845-.188.282.705H24.7l.329.47v.564l-.47.564.047.611-.236.8h1.456l.7.423,1.081-.611.047.845-.845,1.127.657.423,1.034,1.174-.94,1.785-.047.516.564.986,1.034.986.47,1.926.986.893.8.611h1.081l.752,1.019h.375l.7.86,1.409.188-.375,1.034-1.6-.611-1.456-.094.94.705,2.254.564.986,1.081-.564.516-.094,1.644-.516.282-.845-1.55L33.251,68.2v.752l1.034.893.047,1.268.234.423.094,1.081,2.02.7.329,1.034,1.456,1.222.752,3.571.282,1.644h-.423l-.94-3.712L36.117,75.2l-.329-.94-.845.94L34.8,79.141l-.611,3.524-.47,2.537,1.034-.47.94.845-.516.329-.7-.236-.752,1.175L31.843,97.134l-1.127,2.678-1.127,1.409-1.363.329.375.375.7.564.329.893.611-.423,1.6.423-.516,1.268-.657.516,1.081.845v-.752l.752-.375.375,1.127h.516l.375.516h1.081l.845.752h1.55l.282.94.752.329.375.752h1.268l1.127-.657,1.034.375.516.094.094.986.8.47,1.55-.236h.9l.94.845.375-.47,2.913.47.423-1.974,1.833.516,1.6.236.752.893,1.6-.188.516.516.329.8.986-.375,1.268.141.47,1.315.47.564,1.363.7.893,1.175.611-.752.611-.516,1.222.236,1.315.282.657.986.657-.329.47.329.657-.893,1.081-.423,1.081-.752,1.034.329,1.034.375v-.893l-1.409-.94.141-1.127.047-4.51-.611-.564.188-.752.94.234s1.127-1.785,1.363-1.785a12.661,12.661,0,0,0,1.456-.375l1.363-.893,3.617-2.537,1.268.188.516.705,2.113-.047,2.161.329-.375.329-.188.47.564.47,2.02-.188v-.752l.94.047.564.752,2.819-.047v.47l.375.423v.611l2.02.188.845.516.8.329.236.8.7.094,1.222-.893.94.375v.8l1.127-.141-.516-1.222.752.047.752.329.657-.845,1.315-.423h.236l.611.094v-1.409l-.752-.188,1.034-1.034v-.47h1.5l.7-.845v-.94h.893l.8-.375V97.553l1.175-.329Z" transform="translate(-6.759 -5.484)" fill="#fbfffe"/>
        <path id="Tracé_1949" data-name="Tracé 1949" d="M92.414,84.447V82.769L91.7,81.447l-.3-1.067.051-1.017.1-.661-.306-.559-.152-1.017-.3-.559-.814.508V78.6l.407,1.779-.407.355-1.677-.66-.865.965-.406.458h-.813l-.661,1.424h-.864l-.306,1.017-.61,1.017,1.22,1.118-.3.611-.916.3v1.22H84.89L85.5,89.53l-1.017.712.051.813H85.5l.254.559.152.3-.355.814.3.559h1.17l.254.609-.916.865.916.711.813.458,1.271.407.3.864h.813l.611-.508-.3-.406.3-1.017.61-.814-1.017-.2L91.7,93.7l.357-1.067v-3.2l.711-1.17.254-1.372V85.31Z" transform="translate(18.717 18.031)" fill="#fbfffe"/>
      </g>
    </g>
    <g id="Groupe_111" data-name="Groupe 111" transform="translate(1078.477 183)">
      <g id="Ellipse_21" data-name="Ellipse 21" transform="translate(359.523 147)" fill="none" stroke="#64dfc7" stroke-width="1">
        <circle cx="2.5" cy="2.5" r="2.5" stroke="none"/>
        <circle cx="2.5" cy="2.5" r="2" fill="none"/>
      </g>
      <g id="Ellipse_22" data-name="Ellipse 22" transform="translate(358.523 146)" fill="none" stroke="#64dfc7" stroke-width="1" opacity="0.2">
        <circle cx="3.5" cy="3.5" r="3.5" stroke="none"/>
        <circle cx="3.5" cy="3.5" r="3" fill="none"/>
      </g>
    </g>
    <g id="Groupe_187" data-name="Groupe 187" transform="translate(5 -6)">
      <g id="Groupe_186" data-name="Groupe 186">
        <line id="Ligne_287" data-name="Ligne 287" x1="14" transform="translate(1450.5 323.5)" fill="none" stroke="#64dfc7" stroke-linecap="round" stroke-width="1"/>
      </g>
      <line id="Ligne_288" data-name="Ligne 288" y1="16" x2="16" transform="translate(1435.5 322.5)" fill="none" stroke="#64dfc7" stroke-linecap="round" stroke-width="1" stroke-dasharray="3 3"/>
    </g>
    <text id="Thonon-les-Bains" transform="translate(1472 323)" fill="#64dfc7" font-size="18" font-family="Montserrat-Bold, Montserrat" font-weight="700"><tspan x="0" y="0">Thonon-les-Bains</tspan></text>
  </g>
</svg>
